<?xml version="1.0" standalone="no"?>
<!DOCTYPE svg PUBLIC "-//W3C//DTD SVG 20010904//EN"
 "http://www.w3.org/TR/2001/REC-SVG-20010904/DTD/svg10.dtd">
<svg version="1.0" xmlns="http://www.w3.org/2000/svg"
 width="200.000000pt" height="200.000000pt" viewBox="0 0 200.000000 200.000000"
 preserveAspectRatio="xMidYMid meet">
<metadata>
Created by potrace 1.11, written by Peter Selinger 2001-2013
</metadata>
<g transform="translate(0.000000,200.000000) scale(0.100000,-0.100000)"
fill="#000000" stroke="none">
<path d="M195 1643 c-70 -24 -136 -65 -131 -82 20 -67 48 -201 48 -226 -1 -40
17 -118 28 -125 5 -3 11 -17 14 -30 3 -14 19 -90 35 -170 17 -80 34 -170 37
-200 8 -76 19 -82 124 -75 47 3 100 8 118 10 25 4 32 1 33 -13 3 -82 56 -182
126 -237 174 -136 423 -83 523 113 12 23 25 42 28 42 3 0 40 -15 82 -34 41
-19 104 -46 140 -61 191 -80 392 -170 447 -201 l62 -35 21 21 c11 11 20 24 20
29 0 21 -146 132 -250 190 -58 32 -199 100 -255 121 -33 13 -61 24 -63 26 -9
6 63 261 73 258 15 -5 46 42 52 81 4 25 1 41 -10 53 -15 16 -14 25 8 112 29
116 38 175 30 200 -12 39 -173 116 -215 102 -23 -8 -28 -21 -36 -92 -4 -36 -8
-72 -10 -80 -1 -8 -3 -36 -3 -62 -1 -33 -5 -48 -15 -48 -14 0 -274 85 -281 92
-3 2 0 31 5 64 5 32 11 82 15 109 3 28 8 65 11 82 5 29 3 34 -20 43 -15 5 -66
11 -114 12 l-86 3 -3 -29 c-2 -28 -11 -196 -12 -227 -1 -14 -23 -15 -198 -12
-109 3 -202 6 -208 7 -5 1 -15 43 -21 92 -27 199 -41 215 -149 177z"/>
</g>
</svg>
