<?xml version="1.0" encoding="utf-8"?>
<!-- Generator: Adobe Illustrator 22.0.1, SVG Export Plug-In . SVG Version: 6.00 Build 0)  -->
<svg version="1.1" id="Layer_1" xmlns="http://www.w3.org/2000/svg" xmlns:xlink="http://www.w3.org/1999/xlink" x="0px" y="0px"
	 viewBox="0 0 76.9 90" style="enable-background:new 0 0 76.9 90;" xml:space="preserve">
<style type="text/css">
	.st0{stroke:#000000;stroke-width:0.4301;stroke-linecap:round;stroke-linejoin:round;stroke-miterlimit:10;}
	.st1{fill:none;stroke:#000000;stroke-width:2.0987;stroke-linecap:round;stroke-linejoin:round;stroke-miterlimit:10;}
	.st2{fill:#ED1C24;stroke:#000000;stroke-width:0.6708;stroke-linecap:round;stroke-linejoin:round;stroke-miterlimit:10;}
	.st3{stroke:#000000;stroke-width:0.8531;stroke-linecap:round;stroke-linejoin:round;stroke-miterlimit:10;}
	.st4{stroke:#000000;stroke-width:0.4301;stroke-miterlimit:10;}
	.st5{fill:#FFFFFF;stroke:#FFFFFF;stroke-width:0.3324;stroke-linecap:round;stroke-linejoin:round;stroke-miterlimit:10;}
	.st6{fill:#FFFFFF;stroke:#FFFFFF;stroke-width:0.3498;stroke-linecap:round;stroke-linejoin:round;stroke-miterlimit:10;}
	.st7{fill:#FFFFFF;}
	.st8{fill:#8DC63F;stroke:#000000;stroke-width:0.3577;stroke-miterlimit:10;}
	.st9{fill:#2B3990;stroke:#000000;stroke-width:0.3577;stroke-miterlimit:10;}
	.st10{fill:#009444;stroke:#000000;stroke-width:0.3577;stroke-miterlimit:10;}
	.st11{fill:#FFDE17;stroke:#000000;stroke-width:0.3577;stroke-miterlimit:10;}
	.st12{fill:#1B75BC;stroke:#000000;stroke-width:0.3577;stroke-miterlimit:10;}
	.st13{fill:#92278F;stroke:#000000;stroke-width:0.3577;stroke-miterlimit:10;}
	.st14{fill:#F15A29;stroke:#000000;stroke-width:0.3577;stroke-miterlimit:10;}
	.st15{fill:#7F3F98;stroke:#000000;stroke-width:0.3577;stroke-miterlimit:10;}
	.st16{fill:#FFFFFF;stroke:#000000;stroke-width:0.3577;stroke-miterlimit:10;}
	.st17{fill:#2B3990;stroke:#000000;stroke-width:0.4301;stroke-miterlimit:10;}
	.st18{fill:#39B54A;stroke:#5E7134;stroke-width:0.1878;stroke-linecap:round;stroke-linejoin:round;stroke-miterlimit:10;}
	.st19{fill:none;stroke:#5E7134;stroke-width:0.1878;stroke-linecap:round;stroke-linejoin:round;stroke-miterlimit:10;}
	.st20{fill:#95AB3B;stroke:#5E7134;stroke-width:0.1878;stroke-linecap:round;stroke-linejoin:round;stroke-miterlimit:10;}
	.st21{fill:#39B54A;stroke:#5E7134;stroke-width:0.1782;stroke-linecap:round;stroke-linejoin:round;stroke-miterlimit:10;}
	.st22{fill:none;stroke:#5E7134;stroke-width:0.1782;stroke-linecap:round;stroke-linejoin:round;stroke-miterlimit:10;}
	.st23{fill:#95AB3B;stroke:#5E7134;stroke-width:0.1782;stroke-linecap:round;stroke-linejoin:round;stroke-miterlimit:10;}
	.st24{fill:#8DC63F;stroke:#5E7134;stroke-width:0.1782;stroke-linecap:round;stroke-linejoin:round;stroke-miterlimit:10;}
	.st25{fill:#8C1417;stroke:#431813;stroke-width:0.2874;stroke-miterlimit:10;}
	.st26{fill:#EF4136;stroke:#BE1E2D;stroke-width:0.2874;stroke-miterlimit:10;}
	.st27{fill:#691D14;stroke:#431813;stroke-width:0.2874;stroke-miterlimit:10;}
	.st28{fill:#BB2026;stroke:#9F1D21;stroke-width:0.2874;stroke-miterlimit:10;}
	.st29{fill:#A71E22;stroke:#701D19;stroke-width:0.2874;stroke-miterlimit:10;}
	.st30{fill:#ED1C24;stroke:#691D14;stroke-width:0.2874;stroke-miterlimit:10;}
	.st31{fill:#E94924;stroke:#BE1E2D;stroke-width:0.2874;stroke-miterlimit:10;}
	.st32{fill:#39B54A;stroke:#5E7134;stroke-width:0.1549;stroke-linecap:round;stroke-linejoin:round;stroke-miterlimit:10;}
	.st33{fill:none;stroke:#5E7134;stroke-width:0.1549;stroke-linecap:round;stroke-linejoin:round;stroke-miterlimit:10;}
	.st34{fill:#95AB3B;stroke:#5E7134;stroke-width:0.1549;stroke-linecap:round;stroke-linejoin:round;stroke-miterlimit:10;}
	.st35{fill:#39B54A;stroke:#5E7134;stroke-width:0.1864;stroke-linecap:round;stroke-linejoin:round;stroke-miterlimit:10;}
	.st36{fill:none;stroke:#5E7134;stroke-width:0.1864;stroke-linecap:round;stroke-linejoin:round;stroke-miterlimit:10;}
	.st37{fill:#95AB3B;stroke:#5E7134;stroke-width:0.1864;stroke-linecap:round;stroke-linejoin:round;stroke-miterlimit:10;}
	.st38{fill:#8DC63F;stroke:#5E7134;stroke-width:0.161;stroke-linecap:round;stroke-linejoin:round;stroke-miterlimit:10;}
	.st39{fill:none;stroke:#5E7134;stroke-width:0.161;stroke-linecap:round;stroke-linejoin:round;stroke-miterlimit:10;}
	.st40{fill:#95AB3B;stroke:#5E7134;stroke-width:0.161;stroke-linecap:round;stroke-linejoin:round;stroke-miterlimit:10;}
	.st41{fill:#ED1C24;}
</style>
<g>
	<g>
		<path class="st41" d="M61,75H15.3c-0.3,0-0.5-0.2-0.6-0.4C9,53.8,9,31.8,14.7,11c0.1-0.3,0.3-0.4,0.6-0.4H61
			c0.2,0,0.4,0.1,0.5,0.2c0.1,0.1,0.2,0.3,0.1,0.5c-5.7,20.6-5.7,42.3,0,62.9c0,0.2,0,0.4-0.1,0.5S61.2,75,61,75z M15.8,73.8h44.5
			c-5.4-20.3-5.4-41.7,0-62H15.8C10.3,32.1,10.3,53.5,15.8,73.8z"/>
	</g>
	<g>
		<path class="st41" d="M61.6,75H61c-0.3,0-0.5-0.2-0.6-0.4c-5.7-20.8-5.7-42.8,0-63.6c0.1-0.3,0.3-0.4,0.6-0.4h0.6
			c0.3,0,0.5,0.2,0.6,0.4c5.7,20.8,5.7,42.8,0,63.6C62.1,74.8,61.9,75,61.6,75z M61.3,12.4c-5.3,19.9-5.3,40.9,0,60.8
			C66.6,53.3,66.6,32.3,61.3,12.4z"/>
	</g>
	<g>
		<g>
			<g>
				<path class="st41" d="M43.8,55.3c0,1.7-0.5,3.2-1.6,4.3c-3,3-9.4,1.6-14.2-3.2l0,0c-4.8-4.8-6.2-11.2-3.2-14.2
					c1.5-1.5,3.9-2,6.6-1.3c2.6,0.6,5.3,2.2,7.6,4.5c2.3,2.3,3.9,5,4.5,7.6C43.7,53.8,43.8,54.6,43.8,55.3z M28.8,55.5
					c4.3,4.3,10,5.8,12.5,3.2c1.2-1.2,1.6-3.1,1-5.5c-0.6-2.4-2.1-4.9-4.2-7.1c-4.3-4.3-10-5.8-12.5-3.2S24.5,51.2,28.8,55.5
					L28.8,55.5z"/>
			</g>
			<g>
				<path class="st41" d="M40.2,60.3c0,0.2-0.1,0.3-0.2,0.5c-0.3,0.2-0.6,0.2-0.8-0.1c-2-2.4-2.2-4.1-2.3-5.8
					c-0.1-1.6-0.2-3.1-2-5.2c-1.8-2.1-3.3-2.6-5-3.1c-1.7-0.5-3.5-1.1-5.5-3.4c-0.2-0.3-0.2-0.6,0.1-0.8c0.3-0.2,0.6-0.2,0.8,0.1
					c1.8,2.1,3.3,2.6,5,3.1c1.7,0.5,3.5,1.1,5.5,3.4c2,2.4,2.2,4.1,2.3,5.8c0.1,1.6,0.2,3.1,2,5.2C40.2,60.1,40.2,60.2,40.2,60.3z"
					/>
			</g>
		</g>
	</g>
	<g>
		<path class="st41" d="M61.6,74.8c-0.2,0-0.4-0.2-0.4-0.4V11.2c0-0.2,0.2-0.4,0.4-0.4s0.4,0.2,0.4,0.4v63.2
			C62,74.6,61.9,74.8,61.6,74.8z"/>
	</g>
	<g>
		<path class="st41" d="M59.8,11.8H17.1c-1.8,0-3.2-1.4-3.2-3.2V3.2c0-1.8,1.4-3.2,3.2-3.2h42.7c1.8,0,3.2,1.4,3.2,3.2v5.4
			C63.1,10.3,61.6,11.8,59.8,11.8z M17.1,1.2c-1.1,0-2,0.9-2,2v5.4c0,1.1,0.9,2,2,2h42.7c1.1,0,2-0.9,2-2V3.2c0-1.1-0.9-2-2-2H17.1z
			"/>
	</g>
</g>
</svg>
