<?xml version="1.0" encoding="utf-8"?>
<!-- Generator: Adobe Illustrator 22.0.1, SVG Export Plug-In . SVG Version: 6.00 Build 0)  -->
<svg version="1.1" id="Layer_1" xmlns="http://www.w3.org/2000/svg" xmlns:xlink="http://www.w3.org/1999/xlink" x="0px" y="0px"
	 viewBox="0 0 145 100" style="enable-background:new 0 0 145 100;" xml:space="preserve">
<style type="text/css">
	.st0{stroke:#000000;stroke-width:0.4301;stroke-linecap:round;stroke-linejoin:round;stroke-miterlimit:10;}
	.st1{fill:none;stroke:#000000;stroke-width:2.0987;stroke-linecap:round;stroke-linejoin:round;stroke-miterlimit:10;}
	.st2{fill:#ED1C24;stroke:#000000;stroke-width:0.6708;stroke-linecap:round;stroke-linejoin:round;stroke-miterlimit:10;}
	.st3{stroke:#000000;stroke-width:0.8531;stroke-linecap:round;stroke-linejoin:round;stroke-miterlimit:10;}
	.st4{stroke:#000000;stroke-width:0.4301;stroke-miterlimit:10;}
	.st5{fill:#FFFFFF;stroke:#FFFFFF;stroke-width:0.3324;stroke-linecap:round;stroke-linejoin:round;stroke-miterlimit:10;}
	.st6{fill:#FFFFFF;stroke:#FFFFFF;stroke-width:0.3498;stroke-linecap:round;stroke-linejoin:round;stroke-miterlimit:10;}
	.st7{fill:#FFFFFF;}
	.st8{fill:#8DC63F;stroke:#000000;stroke-width:0.3577;stroke-miterlimit:10;}
	.st9{fill:#2B3990;stroke:#000000;stroke-width:0.3577;stroke-miterlimit:10;}
	.st10{fill:#009444;stroke:#000000;stroke-width:0.3577;stroke-miterlimit:10;}
	.st11{fill:#FFDE17;stroke:#000000;stroke-width:0.3577;stroke-miterlimit:10;}
	.st12{fill:#1B75BC;stroke:#000000;stroke-width:0.3577;stroke-miterlimit:10;}
	.st13{fill:#92278F;stroke:#000000;stroke-width:0.3577;stroke-miterlimit:10;}
	.st14{fill:#F15A29;stroke:#000000;stroke-width:0.3577;stroke-miterlimit:10;}
	.st15{fill:#7F3F98;stroke:#000000;stroke-width:0.3577;stroke-miterlimit:10;}
	.st16{fill:#FFFFFF;stroke:#000000;stroke-width:0.3577;stroke-miterlimit:10;}
	.st17{fill:#2B3990;stroke:#000000;stroke-width:0.4301;stroke-miterlimit:10;}
	.st18{fill:#39B54A;stroke:#5E7134;stroke-width:0.1878;stroke-linecap:round;stroke-linejoin:round;stroke-miterlimit:10;}
	.st19{fill:none;stroke:#5E7134;stroke-width:0.1878;stroke-linecap:round;stroke-linejoin:round;stroke-miterlimit:10;}
	.st20{fill:#95AB3B;stroke:#5E7134;stroke-width:0.1878;stroke-linecap:round;stroke-linejoin:round;stroke-miterlimit:10;}
	.st21{fill:#39B54A;stroke:#5E7134;stroke-width:0.1782;stroke-linecap:round;stroke-linejoin:round;stroke-miterlimit:10;}
	.st22{fill:none;stroke:#5E7134;stroke-width:0.1782;stroke-linecap:round;stroke-linejoin:round;stroke-miterlimit:10;}
	.st23{fill:#95AB3B;stroke:#5E7134;stroke-width:0.1782;stroke-linecap:round;stroke-linejoin:round;stroke-miterlimit:10;}
	.st24{fill:#8DC63F;stroke:#5E7134;stroke-width:0.1782;stroke-linecap:round;stroke-linejoin:round;stroke-miterlimit:10;}
	.st25{fill:#8C1417;stroke:#431813;stroke-width:0.2874;stroke-miterlimit:10;}
	.st26{fill:#EF4136;stroke:#BE1E2D;stroke-width:0.2874;stroke-miterlimit:10;}
	.st27{fill:#691D14;stroke:#431813;stroke-width:0.2874;stroke-miterlimit:10;}
	.st28{fill:#BB2026;stroke:#9F1D21;stroke-width:0.2874;stroke-miterlimit:10;}
	.st29{fill:#A71E22;stroke:#701D19;stroke-width:0.2874;stroke-miterlimit:10;}
	.st30{fill:#ED1C24;stroke:#691D14;stroke-width:0.2874;stroke-miterlimit:10;}
	.st31{fill:#E94924;stroke:#BE1E2D;stroke-width:0.2874;stroke-miterlimit:10;}
	.st32{fill:#39B54A;stroke:#5E7134;stroke-width:0.1549;stroke-linecap:round;stroke-linejoin:round;stroke-miterlimit:10;}
	.st33{fill:none;stroke:#5E7134;stroke-width:0.1549;stroke-linecap:round;stroke-linejoin:round;stroke-miterlimit:10;}
	.st34{fill:#95AB3B;stroke:#5E7134;stroke-width:0.1549;stroke-linecap:round;stroke-linejoin:round;stroke-miterlimit:10;}
	.st35{fill:#39B54A;stroke:#5E7134;stroke-width:0.1864;stroke-linecap:round;stroke-linejoin:round;stroke-miterlimit:10;}
	.st36{fill:none;stroke:#5E7134;stroke-width:0.1864;stroke-linecap:round;stroke-linejoin:round;stroke-miterlimit:10;}
	.st37{fill:#95AB3B;stroke:#5E7134;stroke-width:0.1864;stroke-linecap:round;stroke-linejoin:round;stroke-miterlimit:10;}
	.st38{fill:#8DC63F;stroke:#5E7134;stroke-width:0.161;stroke-linecap:round;stroke-linejoin:round;stroke-miterlimit:10;}
	.st39{fill:none;stroke:#5E7134;stroke-width:0.161;stroke-linecap:round;stroke-linejoin:round;stroke-miterlimit:10;}
	.st40{fill:#95AB3B;stroke:#5E7134;stroke-width:0.161;stroke-linecap:round;stroke-linejoin:round;stroke-miterlimit:10;}
	.st41{fill:#ED1C24;}
	.st42{fill:#ED1C24;stroke:#000000;stroke-width:0.8663;stroke-linecap:round;stroke-linejoin:round;stroke-miterlimit:10;}
	.st43{fill:#FFFFFF;stroke:#FFFFFF;stroke-width:0.4293;stroke-linecap:round;stroke-linejoin:round;stroke-miterlimit:10;}
	.st44{fill:#FFFFFF;stroke:#FFFFFF;stroke-width:0.4517;stroke-linecap:round;stroke-linejoin:round;stroke-miterlimit:10;}
	.st45{fill:#8DC63F;stroke:#000000;stroke-width:0.4619;stroke-miterlimit:10;}
	.st46{fill:#2B3990;stroke:#000000;stroke-width:0.4619;stroke-miterlimit:10;}
	.st47{fill:#009444;stroke:#000000;stroke-width:0.4619;stroke-miterlimit:10;}
	.st48{fill:#FFDE17;stroke:#000000;stroke-width:0.4619;stroke-miterlimit:10;}
	.st49{fill:#1B75BC;stroke:#000000;stroke-width:0.4619;stroke-miterlimit:10;}
	.st50{fill:#92278F;stroke:#000000;stroke-width:0.4619;stroke-miterlimit:10;}
	.st51{fill:#F15A29;stroke:#000000;stroke-width:0.4619;stroke-miterlimit:10;}
	.st52{fill:#7F3F98;stroke:#000000;stroke-width:0.4619;stroke-miterlimit:10;}
	.st53{fill:#FFFFFF;stroke:#000000;stroke-width:0.4619;stroke-miterlimit:10;}
	.st54{fill:#2B3990;stroke:#000000;stroke-width:0.5555;stroke-miterlimit:10;}
</style>
<g>
	<path class="st42" d="M98.6,71.5c10.5,3.7,20.8,8.3,30.2,14.3c5.3,3.4,10.5,6.7,14.6,11.3c0.1,0.2-2.1,2.8-2.6,2.9
		c-0.8,0.3-2.3-1-3-1.4c-2.3-1.3-4.7-2.5-7.1-3.7c-5.3-2.6-10.8-4.7-16.2-7.1c-5.7-2.5-11.4-5-17.1-7.5c-0.1,0-0.9-0.4-0.9-0.4
		c0.8-2,0.5-4.4,1.3-6.4C98.2,72.8,98.6,72.2,98.6,71.5z"/>
	<path class="st42" d="M18.8,68.8c13.4-0.2,26.8-2.5,39.9-1.5s26.4,7.6,38,12.8C99.6,69,103,55.5,104.3,44
		c-11.5-4.4-23.6-8.2-35.6-11c-18.5-4.4-37.8-6.8-56.4-3.3c0,8.5,1.8,16.9,4.2,25.1C17.7,59.1,17.6,64.6,18.8,68.8z"/>
	<path class="st42" d="M1.5,6.1c0,0,12.2,49.6,13,61.7c0,0,2.4,2.8,6.3,1.3s3.9-57.9-1.9-67.8C16.3-3.2,1.5,6.1,1.5,6.1z"/>
	<path class="st42" d="M53.8,46.1L56,1.7c0,0,9.7-0.7,16.1,1.8l-6,45.3L53.8,46.1z"/>
	<path class="st42" d="M90,76.9c0,0,2.7-61.7,4.9-65c2.2-3.3,16.2,3.7,17.2,6.9c1,3.2-6.4,30-6.4,30l-8,31.9L90,76.9z"/>
	<path class="st42" d="M59.2,23.6c-19.6-3.5-49.6-1.8-54.3,0.8c0,0,1.1,6.9,2.2,8.6s22.6-4.4,54.2,2.9c30.4,7,45.4,15.8,45.4,15.8
		s4.1-3.6,3.2-8.3S78.5,27,59.2,23.6z"/>
	<g>
		<path class="st43" d="M12.7,14.1c0.6-2.2,2-4.1,3.8-5.3c-1.1-0.8-2.6-1.1-3.9-0.6C12.3,7,11.8,6,11,5.2c-0.2-0.2-0.6-0.5-0.9-0.4
			C9.8,4.9,9.7,5.1,9.5,5.4C8.9,6.5,8.6,7.7,8.5,9c-1.4-0.1-2.7,1-3,2.3c1.3-0.5,2.8-0.5,4.1,0.1C11,11.9,12.1,12.9,12.7,14.1"/>
		<path class="st43" d="M14.2,20.7c-0.5-2.4-0.1-5,1-7.2c0.4-0.8,0.9-1.6,1.7-1.9s1.9,0,2.1,0.9c0.1,0.6-0.3,1.3-0.6,1.8
			c-0.9,1.2-1.7,2.4-2.6,3.5c-0.3,0.4-0.5,0.7-0.8,1.1c-0.2,0.3-0.4,1.2-0.7,1.3c-0.5,0.3-0.7-1.4-0.9-1.8c-0.6-1.7-1.7-3.2-3-4.4
			c-0.5-0.4-1.1-0.8-1.7-0.9c-0.6-0.1-1.4,0.3-1.6,0.9c-0.1,0.6,0.2,1.2,0.7,1.5c0.5,0.4,1,0.5,1.6,0.7c2.3,0.9,4.2,2.8,5,5.1"/>
	</g>
	<g>
		<path class="st44" d="M62.6,15c1.4-1.7,3.4-2.9,5.6-3.3c-0.7-1.2-2-2-3.3-2.2c0.2-1.1,0.1-2.2-0.3-3.3c-0.1-0.3-0.3-0.7-0.7-0.7
			c-0.3,0-0.5,0.1-0.7,0.3c-1,0.8-1.8,1.7-2.3,2.9c-1.2-0.6-2.8-0.2-3.6,0.9c1.4,0.1,2.7,0.7,3.7,1.7C61.9,12.3,62.5,13.7,62.6,15"
			/>
		<path class="st44" d="M61.3,21.5c0.5-2.4,1.9-4.6,3.7-6.1c0.7-0.6,1.4-1,2.3-1s1.7,0.8,1.6,1.6c-0.1,0.6-0.7,1-1.3,1.4
			c-1.2,0.7-2.5,1.5-3.7,2.2c-0.4,0.2-0.8,0.5-1.1,0.7c-0.3,0.2-0.9,0.9-1.1,0.9c-0.6,0.1-0.1-1.5-0.1-2c0.1-1.8-0.2-3.6-1-5.2
			c-0.3-0.6-0.6-1.2-1.2-1.5s-1.4-0.3-1.8,0.2c-0.4,0.5-0.3,1.1,0,1.6c0.3,0.5,0.7,0.9,1.1,1.3c1.7,1.7,2.6,4.2,2.5,6.7"/>
	</g>
	<path class="st7" d="M19.8,64.2c-2-1.9-2.7-2.6-3-7c0.3,0.1,0.7,0.2,1,0.3c1.3,0.1,2.5-0.7,3-1.8c0.5-1.2-0.1-2.8-1.3-3.3
		c-1.3-0.6-2.8,0.1-3.6,1.1c0-0.1,0-0.2,0-0.3c0-1,0.7-1.9,1.4-2.8c0.2-0.2,0.4-0.5,0.5-0.7c1.7-2.5,2.4-5.7,2-8.7
		c0-0.3-0.1-0.7-0.1-1c0,0,0-0.1,0-0.1c-0.4-1.8-1.2-3.5-2.3-4.9c-0.3-0.3-0.8-0.4-1.1-0.1c-0.3,0.3-0.4,0.8-0.1,1.1
		c1.1,1.3,1.8,2.9,2.1,4.6c0,0,0,0.1,0,0.1c0,0.1,0,0.2,0,0.3c0.1,1.2-0.3,2.8-1,3.7c0-0.2,0-0.4,0-0.6c-0.2-1.5-1.7-2.6-3.2-2.4
		c-1.5,0.2-2.7,1.7-2.5,3.2c0.1,1.4,1.4,2.6,3,2.8c0.1,0,0.2,0,0.4,0c1,0,2-0.4,2.9-1.1c-0.3,0.8-0.7,1.5-1.1,2.2
		c-0.2,0.2-0.3,0.4-0.5,0.7c-0.8,1.1-1.7,2.3-1.7,3.8c0,0.9,0.3,1.8,0.9,2.6c0,0.4,0,0.9,0,1.3c0.1,3.1,0.6,8.1,2.1,11
		c0,0,0.9,0.7,1.4,0s0.1-1-0.1-1.6c-0.3-0.8,0.4-1.2,0.8-1.3C19.8,65.1,20.1,64.5,19.8,64.2z M19.3,55.1c-0.2,0.5-0.8,0.8-1.3,0.8
		c-0.4,0-0.7-0.2-1-0.5c0.1-0.3,0.2-0.6,0.3-0.8c0.3-0.5,1.1-0.9,1.6-0.7C19.2,54,19.4,54.6,19.3,55.1z"/>
	<g>
		<path class="st44" d="M101.8,27.4c-0.6-2.3-2.1-4.4-4.1-5.7c1.2-0.9,2.8-1.1,4.2-0.7c0.3-1.2,0.8-2.3,1.7-3.1
			c0.3-0.3,0.6-0.5,1-0.4c0.3,0.1,0.5,0.3,0.6,0.6c0.6,1.2,1,2.5,1.1,3.9c1.5-0.1,2.9,1,3.2,2.5c-1.4-0.5-3-0.5-4.4,0.1
			S102.4,26.2,101.8,27.4"/>
		<path class="st44" d="M100.1,34.5c0.5-2.6,0.1-5.3-1-7.7c-0.4-0.8-1-1.7-1.8-2c-0.9-0.3-2.1,0-2.3,0.9c-0.2,0.7,0.3,1.3,0.7,1.9
			c0.9,1.3,1.8,2.5,2.7,3.8c0.3,0.4,0.6,0.8,0.8,1.2c0.2,0.3,0.5,1.3,0.7,1.4c0.6,0.4,0.8-1.5,1-1.9c0.7-1.8,1.8-3.4,3.2-4.6
			c0.5-0.5,1.1-0.9,1.8-0.9c0.7-0.1,1.5,0.3,1.7,1c0.2,0.6-0.2,1.2-0.7,1.6c-0.5,0.4-1.1,0.6-1.7,0.8c-2.4,1-4.5,3-5.4,5.5"/>
	</g>
	<path class="st7" d="M92.2,74.9c0.3,0.1,0.9,0.5,0.6,1.1c-0.2,0.5-0.6,0.7-0.3,1.3s1.2,0.1,1.2,0.1c1.5-2.2,2.5-6.3,2.8-8.9
		c0-0.3,0.1-0.7,0.1-1.1c0.5-0.6,0.9-1.3,1-2.1c0.2-1.3-0.5-2.4-1-3.3c-0.1-0.2-0.2-0.4-0.3-0.6c-0.3-0.6-0.6-1.3-0.7-1.9
		c0.6,0.7,1.5,1.1,2.3,1.2c0.1,0,0.2,0,0.3,0c1.3,0,2.5-0.8,2.8-2c0.3-1.2-0.5-2.6-1.8-2.9c-1.2-0.3-2.6,0.5-2.9,1.7
		c0,0.2-0.1,0.4-0.1,0.5c-0.5-0.9-0.7-2.2-0.5-3.2c0-0.1,0-0.2,0.1-0.3c0,0,0-0.1,0-0.1c0.4-1.3,1.2-2.6,2.2-3.6
		c0.3-0.3,0.3-0.7,0-1c-0.3-0.3-0.7-0.3-1,0c-1.1,1.1-1.9,2.4-2.4,3.8c0,0,0,0.1-0.1,0.1c-0.1,0.2-0.2,0.5-0.2,0.8
		c-0.6,2.5-0.4,5.2,0.7,7.4c0.1,0.2,0.2,0.4,0.4,0.6c0.5,0.8,1,1.7,0.9,2.5c0,0.1,0,0.2,0,0.2c-0.5-1-1.7-1.7-2.8-1.3
		c-1,0.3-1.7,1.5-1.4,2.6c0.3,1,1.2,1.7,2.3,1.8c0.3,0,0.6,0,0.9-0.1c-0.6,3.6-1.3,4.2-3.2,5.5C91.6,74.2,91.8,74.7,92.2,74.9z
		 M58.2,64.4c0.4,0.1,1,0.4,0.7,1.1c-0.2,0.5-0.5,0.8-0.1,1.4s1.2,0,1.2,0c1.3-2.5,1.7-6.8,1.8-9.6c0-0.4,0-0.7,0-1.1
		c0.5-0.7,0.8-1.5,0.8-2.3c0-1.3-0.8-2.4-1.5-3.3c-0.1-0.2-0.3-0.4-0.4-0.6c-0.4-0.6-0.7-1.2-1-1.9c0.7,0.6,1.7,1,2.5,1
		c0.1,0,0.2,0,0.3,0c1.4-0.1,2.5-1.2,2.6-2.5c0.1-1.3-0.9-2.6-2.2-2.8c-1.3-0.2-2.6,0.8-2.8,2.1c0,0.2,0,0.4,0,0.6
		c-0.6-0.8-1-2.2-0.9-3.2c0-0.1,0-0.2,0-0.3c0,0,0-0.1,0-0.1c0.3-1.5,0.9-2.8,1.8-4c0.2-0.3,0.2-0.8-0.1-1c-0.3-0.2-0.8-0.2-1,0.1
		c-1,1.2-1.7,2.7-2,4.3c0,0,0,0.1,0,0.1c-0.1,0.3-0.1,0.5-0.1,0.8c-0.4,2.6,0.2,5.4,1.7,7.6c0.1,0.2,0.3,0.4,0.4,0.6
		c0.6,0.8,1.2,1.6,1.2,2.5c0,0.1,0,0.2,0,0.2c-0.7-0.9-2-1.5-3.1-1c-1,0.5-1.5,1.8-1.1,2.9c0.4,1,1.5,1.6,2.6,1.6
		c0.3,0,0.6-0.1,0.9-0.2c-0.2,3.9-0.8,4.5-2.6,6.2C57.6,63.9,57.9,64.4,58.2,64.4z M93.7,65.2c0.5-0.2,1.2,0.2,1.5,0.6
		c0.1,0.2,0.2,0.5,0.3,0.7c-0.3,0.3-0.6,0.4-1,0.5c-0.5,0-1-0.3-1.2-0.7C93.2,66,93.4,65.4,93.7,65.2z"/>
	<path class="st7" d="M39.1,26.1c-0.4,0-0.7,0.1-1,0.3c0-0.1,0.1-0.3,0.1-0.5c0-0.9-0.7-1.7-1.7-1.7c-0.9,0-1.7,0.7-1.7,1.7
		c0,0,0,0.1,0,0.1c-0.3-0.2-0.6-0.4-1-0.4c-0.9,0-1.7,0.7-1.7,1.7c0,0.9,0.7,1.7,1.7,1.7c0.3,0,0.6-0.1,0.8-0.2
		c0,0.1-0.1,0.3-0.1,0.4c0,0.9,0.7,1.7,1.7,1.7c0.9,0,1.7-0.7,1.7-1.7c0-0.1,0-0.1,0-0.2c0.3,0.3,0.7,0.5,1.2,0.5
		c0.9,0,1.7-0.7,1.7-1.7C40.8,26.8,40,26.1,39.1,26.1z"/>
	<path class="st7" d="M83.8,35.2c-0.4-0.1-0.7,0-1,0.1c0.1-0.1,0.1-0.3,0.2-0.4c0.2-0.9-0.4-1.8-1.3-2c-0.9-0.2-1.8,0.4-2,1.3
		c0,0,0,0.1,0,0.1c-0.2-0.3-0.6-0.5-0.9-0.6c-0.9-0.2-1.8,0.4-2,1.3c-0.2,0.9,0.4,1.8,1.3,2c0.3,0.1,0.6,0,0.9-0.1
		c-0.1,0.1-0.1,0.2-0.1,0.4c-0.2,0.9,0.4,1.8,1.3,2s1.8-0.4,2-1.3c0-0.1,0-0.1,0-0.2c0.2,0.3,0.6,0.6,1,0.7c0.9,0.2,1.8-0.4,2-1.3
		C85.3,36.2,84.7,35.3,83.8,35.2z"/>
	<g>
		<circle class="st42" cx="60.1" cy="67.5" r="25.4"/>
		<g>
			<polygon class="st45" points="76.8,61.3 79.9,55.9 73.7,55.9 73.1,59.9 			"/>
			<polygon class="st45" points="46.2,55.9 39.9,55.9 43.3,61.9 47,60.5 			"/>
			<polygon class="st45" points="56.8,85.3 59.9,90.6 63.1,85 60,82.6 			"/>
			<polygon class="st46" points="78,67.4 82.7,63.4 76.8,61.3 74.8,64.7 			"/>
			<polygon class="st46" points="51,52 45.1,49.8 46.2,55.9 50.3,55.9 			"/>
			<polygon class="st46" points="51.1,83.2 52.1,89.2 56.8,85.3 54.8,81.8 			"/>
			<polygon class="st47" points="49.7,59.4 50.3,55.9 46.2,55.9 47,60.5 			"/>
			<polygon class="st47" points="72.6,62.9 74.8,64.7 76.8,61.3 73.1,59.9 			"/>
			<polygon class="st47" points="57.7,80.7 54.8,81.8 56.8,85.3 60,82.6 			"/>
			<polygon class="st48" points="56.9,49.9 52,45.9 51,52 54.9,53.4 			"/>
			<polygon class="st48" points="77,73.5 82.8,71.4 78,67.4 74.9,70 			"/>
			<polygon class="st48" points="46.3,79.3 45.3,85.3 51.1,83.2 50.3,79.2 			"/>
			<polygon class="st49" points="53.5,55.9 54.9,53.4 51,52 50.3,55.9 			"/>
			<polygon class="st49" points="73.3,67.3 74.9,70 78,67.4 74.8,64.7 			"/>
			<polygon class="st49" points="53.3,79.2 50.3,79.2 51.1,83.2 54.8,81.8 			"/>
			<polygon class="st50" points="53.5,55.9 50.3,55.9 49.7,59.4 52,58.6 			"/>
			<polygon class="st50" points="73.3,67.3 74.8,64.7 72.6,62.9 72.2,65.4 			"/>
			<polygon class="st50" points="53.3,79.2 54.8,81.8 57.7,80.7 55.9,79.2 			"/>
			<polygon class="st45" points="77,73.5 73.3,74.9 74,79 80.2,79 			"/>
			<polygon class="st45" points="63.1,49.9 59.9,44.5 56.9,49.9 60.1,52.5 			"/>
			<polygon class="st45" points="43.2,74 40.2,79.3 46.3,79.3 47,75.3 			"/>
			<polygon class="st51" points="57.8,54.4 60.1,52.5 56.9,49.9 54.9,53.4 			"/>
			<polygon class="st51" points="72.7,71.8 73.3,74.9 77,73.5 74.9,70 			"/>
			<polygon class="st51" points="49.8,76.3 47,75.3 46.3,79.3 50.3,79.2 			"/>
			<polygon class="st52" points="57.8,54.4 54.9,53.4 53.5,55.9 56.1,55.9 			"/>
			<polygon class="st52" points="72.7,71.8 74.9,70 73.3,67.3 72.2,69.2 			"/>
			<polygon class="st52" points="49.8,76.3 50.3,79.2 53.3,79.2 52.1,77.1 			"/>
			<polygon class="st51" points="54.2,77.9 52.1,77.1 53.3,79.2 55.9,79.2 			"/>
			<polygon class="st51" points="53.9,57.8 56.1,55.9 53.5,55.9 52,58.6 			"/>
			<polygon class="st51" points="71.9,67.6 72.2,69.2 73.3,67.3 72.2,65.4 			"/>
			<polygon class="st46" points="68.9,52.1 67.8,45.9 63.1,49.9 65.2,53.5 			"/>
			<polygon class="st46" points="42.1,68 37.5,72 43.2,74 45.2,70.5 			"/>
			<polygon class="st46" points="69.4,83.2 75.2,85.2 74,79 70,79.1 			"/>
			<polygon class="st47" points="47.5,72.4 45.2,70.5 43.2,74 47,75.3 			"/>
			<polygon class="st47" points="70.5,75.9 70,79.1 74,79 73.3,74.9 			"/>
			<polygon class="st47" points="62.5,54.5 65.2,53.5 63.1,49.9 60.1,52.5 			"/>
			<polygon class="st52" points="62.5,54.5 60.1,52.5 57.8,54.4 60.4,55.3 			"/>
			<polygon class="st52" points="47.5,72.4 47,75.3 49.8,76.3 49.4,73.9 			"/>
			<polygon class="st52" points="71,73.3 70.5,75.9 73.3,74.9 72.7,71.8 			"/>
			<polygon class="st51" points="71.4,70.6 71,73.3 72.7,71.8 72.2,69.2 			"/>
			<polygon class="st51" points="58.9,55.9 60.4,55.3 57.8,54.4 56.1,55.9 			"/>
			<polygon class="st51" points="51,75.3 49.4,73.9 49.8,76.3 52.1,77.1 			"/>
			<polygon class="st53" points="71.4,70.6 72.2,69.2 71.9,67.6 71.6,69.6 			"/>
			<polygon class="st53" points="51,75.3 52.1,77.1 54.2,77.9 52.9,76.8 			"/>
			<polygon class="st53" points="58.9,55.9 56.1,55.9 53.9,57.8 56,57 			"/>
			<polygon class="st48" points="73.7,55.9 74.7,49.9 68.9,52.1 69.7,55.9 			"/>
			<polygon class="st48" points="63.1,85 68.4,89.4 69.4,83.2 65,81.6 			"/>
			<polygon class="st48" points="43.3,61.9 37.3,64.1 42.1,68 45.3,65.3 			"/>
			<polygon class="st51" points="47.5,63.4 47,60.5 43.3,61.9 45.3,65.3 			"/>
			<polygon class="st51" points="62.3,80.7 60,82.6 63.1,85 65,81.6 			"/>
			<polygon class="st51" points="70.2,58.9 73.1,59.9 73.7,55.9 69.7,55.9 			"/>
			<polygon class="st52" points="57.7,80.7 60,82.6 62.3,80.7 60,79.9 			"/>
			<polygon class="st52" points="72.6,62.9 73.1,59.9 70.2,58.9 70.7,61.4 			"/>
			<polygon class="st52" points="49.7,59.4 47,60.5 47.5,63.4 49.3,61.8 			"/>
			<polygon class="st51" points="58,79.2 55.9,79.2 57.7,80.7 60,79.9 			"/>
			<polygon class="st51" points="50.9,60.4 52,58.6 49.7,59.4 49.3,61.8 			"/>
			<polygon class="st51" points="71.1,63.5 72.2,65.4 72.6,62.9 70.7,61.4 			"/>
			<polygon class="st53" points="54.2,77.9 55.9,79.2 58,79.2 56.3,78.6 			"/>
			<polygon class="st53" points="53.9,57.8 52,58.6 50.9,60.4 52.6,58.9 			"/>
			<polygon class="st53" points="71.9,67.6 72.2,65.4 71.1,63.5 71.5,65.5 			"/>
			<polygon class="st49" points="46.7,67.8 45.3,65.3 42.1,68 45.2,70.5 			"/>
			<polygon class="st49" points="66.6,55.9 69.7,55.9 68.9,52.1 65.2,53.5 			"/>
			<polygon class="st49" points="66.5,79.1 65,81.6 69.4,83.2 70,79.1 			"/>
			<polygon class="st52" points="47.5,63.4 45.3,65.3 46.7,67.8 47.9,65.7 			"/>
			<polygon class="st52" points="62.3,80.7 65,81.6 66.5,79.1 64.1,79.1 			"/>
			<polygon class="st52" points="70.2,58.9 69.7,55.9 66.6,55.9 67.9,58.1 			"/>
			<polygon class="st51" points="62,79.1 60,79.9 62.3,80.7 64.1,79.1 			"/>
			<polygon class="st51" points="49,63.9 49.3,61.8 47.5,63.4 47.9,65.7 			"/>
			<polygon class="st51" points="69,60 70.7,61.4 70.2,58.9 67.9,58.1 			"/>
			<polygon class="st53" points="58,79.2 60,79.9 62,79.1 60.2,79.1 			"/>
			<polygon class="st53" points="71.1,63.5 70.7,61.4 69,60 70.1,61.7 			"/>
			<polygon class="st53" points="50.9,60.4 49.3,61.8 49,63.9 50.1,61.9 			"/>
			<polygon class="st50" points="46.7,67.8 45.2,70.5 47.5,72.4 47.9,69.9 			"/>
			<polygon class="st50" points="66.5,79.1 70,79.1 70.5,75.9 67.7,77 			"/>
			<polygon class="st50" points="66.6,55.9 65.2,53.5 62.5,54.5 64.1,55.9 			"/>
			<polygon class="st51" points="65.8,57.3 67.9,58.1 66.6,55.9 64.1,55.9 			"/>
			<polygon class="st51" points="65.7,77.7 64.1,79.1 66.5,79.1 67.7,77 			"/>
			<polygon class="st51" points="48.3,67.8 47.9,65.7 46.7,67.8 47.9,69.9 			"/>
			<polygon class="st53" points="69,60 67.9,58.1 65.8,57.3 67.4,58.6 			"/>
			<polygon class="st53" points="49,63.9 47.9,65.7 48.3,67.8 48.7,65.6 			"/>
			<polygon class="st53" points="62,79.1 64.1,79.1 65.7,77.7 64.1,78.4 			"/>
			<polygon class="st51" points="61.9,55.9 64.1,55.9 62.5,54.5 60.4,55.3 			"/>
			<polygon class="st51" points="68.7,75.2 67.7,77 70.5,75.9 71,73.3 			"/>
			<polygon class="st51" points="49,71.7 47.9,69.9 47.5,72.4 49.4,73.9 			"/>
			<polygon class="st53" points="65.8,57.3 64.1,55.9 61.9,55.9 63.9,56.6 			"/>
			<polygon class="st53" points="48.3,67.8 47.9,69.9 49,71.7 48.6,69.5 			"/>
			<polygon class="st53" points="65.7,77.7 67.7,77 68.7,75.2 67.4,76.3 			"/>
			<polygon class="st53" points="49,71.7 49.4,73.9 51,75.3 49.9,73.2 			"/>
			<polygon class="st53" points="61.9,55.9 60.4,55.3 58.9,55.9 59.9,55.9 			"/>
			<polygon class="st53" points="69.9,73.2 68.7,75.2 71,73.3 71.4,70.6 			"/>
			<polygon class="st42" points="71.4,70.6 71.6,69.6 71.9,67.6 71.5,65.5 71.1,63.5 70.1,61.7 69,60 67.4,58.6 65.8,57.3 
				63.9,56.6 61.9,55.9 59.9,55.9 58.9,55.9 56,57 53.9,57.8 52.6,58.9 50.9,60.4 50.1,61.9 49,63.9 48.7,65.6 48.3,67.8 48.6,69.5 
				49,71.7 49.9,73.2 51,75.3 52.9,76.8 54.2,77.9 56.3,78.6 58,79.2 60.2,79.1 62,79.1 64.1,78.4 65.7,77.7 67.4,76.3 68.7,75.2 
				69.9,73.2 			"/>
		</g>
	</g>
	<path class="st54" d="M61.8,59.4L61.8,59.4c2-1.5,4.8,0.1,4.5,2.6l0,0c-0.1,1.2,0.5,2.4,1.7,2.9l0,0c2.3,1,2.3,4.2,0,5.2h0
		c-1.1,0.5-1.8,1.7-1.7,2.9l0,0c0.3,2.5-2.5,4.1-4.5,2.6h0c-1-0.7-2.4-0.7-3.4,0h0c-2,1.5-4.8-0.1-4.5-2.6l0,0
		c0.1-1.2-0.5-2.4-1.7-2.9h0c-2.3-1-2.3-4.2,0-5.2l0,0c1.1-0.5,1.8-1.7,1.7-2.9l0,0c-0.3-2.5,2.5-4.1,4.5-2.6l0,0
		C59.4,60.1,60.8,60.1,61.8,59.4z"/>
	<circle class="st48" cx="60.1" cy="67.5" r="3.1"/>
</g>
</svg>
