<?xml version="1.0" encoding="utf-8"?>
<!-- Generator: Adobe Illustrator 22.0.1, SVG Export Plug-In . SVG Version: 6.00 Build 0)  -->
<svg version="1.1" id="Layer_1" xmlns="http://www.w3.org/2000/svg" xmlns:xlink="http://www.w3.org/1999/xlink" x="0px" y="0px"
	 viewBox="0 0 80 140" style="enable-background:new 0 0 80 140;" xml:space="preserve">
<style type="text/css">
	.st0{stroke:#000000;stroke-width:0.4301;stroke-linecap:round;stroke-linejoin:round;stroke-miterlimit:10;}
	.st1{fill:none;stroke:#000000;stroke-width:2.0987;stroke-linecap:round;stroke-linejoin:round;stroke-miterlimit:10;}
	.st2{fill:#ED1C24;stroke:#000000;stroke-width:0.6708;stroke-linecap:round;stroke-linejoin:round;stroke-miterlimit:10;}
	.st3{stroke:#000000;stroke-width:0.8531;stroke-linecap:round;stroke-linejoin:round;stroke-miterlimit:10;}
	.st4{stroke:#000000;stroke-width:0.4301;stroke-miterlimit:10;}
	.st5{fill:#FFFFFF;stroke:#FFFFFF;stroke-width:0.3324;stroke-linecap:round;stroke-linejoin:round;stroke-miterlimit:10;}
	.st6{fill:#FFFFFF;stroke:#FFFFFF;stroke-width:0.3498;stroke-linecap:round;stroke-linejoin:round;stroke-miterlimit:10;}
	.st7{fill:#FFFFFF;}
	.st8{fill:#8DC63F;stroke:#000000;stroke-width:0.3577;stroke-miterlimit:10;}
	.st9{fill:#2B3990;stroke:#000000;stroke-width:0.3577;stroke-miterlimit:10;}
	.st10{fill:#009444;stroke:#000000;stroke-width:0.3577;stroke-miterlimit:10;}
	.st11{fill:#FFDE17;stroke:#000000;stroke-width:0.3577;stroke-miterlimit:10;}
	.st12{fill:#1B75BC;stroke:#000000;stroke-width:0.3577;stroke-miterlimit:10;}
	.st13{fill:#92278F;stroke:#000000;stroke-width:0.3577;stroke-miterlimit:10;}
	.st14{fill:#F15A29;stroke:#000000;stroke-width:0.3577;stroke-miterlimit:10;}
	.st15{fill:#7F3F98;stroke:#000000;stroke-width:0.3577;stroke-miterlimit:10;}
	.st16{fill:#FFFFFF;stroke:#000000;stroke-width:0.3577;stroke-miterlimit:10;}
	.st17{fill:#2B3990;stroke:#000000;stroke-width:0.4301;stroke-miterlimit:10;}
	.st18{fill:#39B54A;stroke:#5E7134;stroke-width:0.1878;stroke-linecap:round;stroke-linejoin:round;stroke-miterlimit:10;}
	.st19{fill:none;stroke:#5E7134;stroke-width:0.1878;stroke-linecap:round;stroke-linejoin:round;stroke-miterlimit:10;}
	.st20{fill:#95AB3B;stroke:#5E7134;stroke-width:0.1878;stroke-linecap:round;stroke-linejoin:round;stroke-miterlimit:10;}
	.st21{fill:#39B54A;stroke:#5E7134;stroke-width:0.1782;stroke-linecap:round;stroke-linejoin:round;stroke-miterlimit:10;}
	.st22{fill:none;stroke:#5E7134;stroke-width:0.1782;stroke-linecap:round;stroke-linejoin:round;stroke-miterlimit:10;}
	.st23{fill:#95AB3B;stroke:#5E7134;stroke-width:0.1782;stroke-linecap:round;stroke-linejoin:round;stroke-miterlimit:10;}
	.st24{fill:#8DC63F;stroke:#5E7134;stroke-width:0.1782;stroke-linecap:round;stroke-linejoin:round;stroke-miterlimit:10;}
	.st25{fill:#8C1417;stroke:#431813;stroke-width:0.2874;stroke-miterlimit:10;}
	.st26{fill:#EF4136;stroke:#BE1E2D;stroke-width:0.2874;stroke-miterlimit:10;}
	.st27{fill:#691D14;stroke:#431813;stroke-width:0.2874;stroke-miterlimit:10;}
	.st28{fill:#BB2026;stroke:#9F1D21;stroke-width:0.2874;stroke-miterlimit:10;}
	.st29{fill:#A71E22;stroke:#701D19;stroke-width:0.2874;stroke-miterlimit:10;}
	.st30{fill:#ED1C24;stroke:#691D14;stroke-width:0.2874;stroke-miterlimit:10;}
	.st31{fill:#E94924;stroke:#BE1E2D;stroke-width:0.2874;stroke-miterlimit:10;}
	.st32{fill:#39B54A;stroke:#5E7134;stroke-width:0.1549;stroke-linecap:round;stroke-linejoin:round;stroke-miterlimit:10;}
	.st33{fill:none;stroke:#5E7134;stroke-width:0.1549;stroke-linecap:round;stroke-linejoin:round;stroke-miterlimit:10;}
	.st34{fill:#95AB3B;stroke:#5E7134;stroke-width:0.1549;stroke-linecap:round;stroke-linejoin:round;stroke-miterlimit:10;}
	.st35{fill:#39B54A;stroke:#5E7134;stroke-width:0.1864;stroke-linecap:round;stroke-linejoin:round;stroke-miterlimit:10;}
	.st36{fill:none;stroke:#5E7134;stroke-width:0.1864;stroke-linecap:round;stroke-linejoin:round;stroke-miterlimit:10;}
	.st37{fill:#95AB3B;stroke:#5E7134;stroke-width:0.1864;stroke-linecap:round;stroke-linejoin:round;stroke-miterlimit:10;}
	.st38{fill:#8DC63F;stroke:#5E7134;stroke-width:0.161;stroke-linecap:round;stroke-linejoin:round;stroke-miterlimit:10;}
	.st39{fill:none;stroke:#5E7134;stroke-width:0.161;stroke-linecap:round;stroke-linejoin:round;stroke-miterlimit:10;}
	.st40{fill:#95AB3B;stroke:#5E7134;stroke-width:0.161;stroke-linecap:round;stroke-linejoin:round;stroke-miterlimit:10;}
	.st41{fill:#ED1C24;}
</style>
<g>
	<g>
		<path class="st41" d="M0.1,131.9H64c4.9,0,8.8-4,8.8-8.8V18.1c0-4.9-4-8.8-8.8-8.8H6.7V1H69c6,0,10.8,4.9,10.8,10.8v116.3
			c0,6-4.9,10.8-10.8,10.8H0.1 M2.1,137H69c4.9,0,8.8-4,8.8-8.8V11.8C77.9,7,73.9,3,69,3H8.7v4.3H64c6,0,10.8,4.9,10.8,10.8V123
			c0,6-4.9,10.8-10.8,10.8H2.1"/>
	</g>
	<g>
		<path class="st41" d="M39.5,44.6h-9.3c-3.1,0-5.7-3.2-5.7-7.1L19.1,8.3c0-0.5,0.4-1,0.8-1h29.7c0.4,0,0.8,0.4,0.8,1l-5.3,29.1
			C45.2,41.3,42.6,44.6,39.5,44.6z M20.7,9.3L26,37.4c0,2.8,1.8,5.2,4.1,5.2h9.3c2.3,0,4.1-2.3,4.1-5.2l5.3-28.1H20.7z"/>
	</g>
	<g>
		<g>
			<path class="st41" d="M39.5,133.8H28.7c-9.2,0-16.7-7.5-16.7-16.7v-15.5c0-0.5,0.4-1,1-1h42.3c0.5,0,1,0.4,1,1v15.5
				C56.3,126.3,48.8,133.8,39.5,133.8z M14,102.6v14.5c0,8.1,6.6,14.7,14.7,14.7h10.8c8.1,0,14.7-6.6,14.7-14.7v-14.5H14z"/>
		</g>
		<g>
			<path class="st41" d="M8.8,120c-4.1,0-7.5-3.4-7.5-7.5s3.4-7.5,7.5-7.5c1.7,0,3.4,0.6,4.7,1.7c0.2,0.2,0.4,0.5,0.4,0.8v9.7
				c0,0.1,0,0.2,0,0.3l0,0.1c0,0.3-0.1,0.6-0.4,0.8C12.3,119.4,10.6,120,8.8,120z M8.8,107c-3.1,0-5.5,2.5-5.5,5.5s2.5,5.5,5.5,5.5
				c1.1,0,2.2-0.3,3.1-1v-9.2C11.1,107.3,10,107,8.8,107z"/>
		</g>
	</g>
	<ellipse class="st41" cx="35.2" cy="5.1" rx="18.1" ry="1.2"/>
	<g>
		<path class="st41" d="M39,75.3c-0.2,0-0.4-0.1-0.6-0.2c-0.4-0.3-0.5-1-0.2-1.4c1.1-1.4,2.2-3,2.2-5.9c0-0.5,0.4-1,1-1s1,0.4,1,1
			c0,3.6-1.3,5.6-2.6,7.1C39.6,75.2,39.3,75.3,39,75.3z"/>
	</g>
	<g>
		<path class="st41" d="M49.3,97.2c-0.2,0-0.4-0.1-0.6-0.2c-0.4-0.3-0.5-1-0.2-1.4c1.1-1.4,2.2-3,2.2-5.9c0-0.5,0.4-1,1-1s1,0.4,1,1
			c0,3.6-1.3,5.6-2.6,7.1C49.9,97,49.6,97.2,49.3,97.2z"/>
	</g>
	<g>
		<path class="st41" d="M41.4,98.1c-0.5,0-1-0.4-1-1c0-3.3-1.3-4.9-2.8-6.7c-1.5-1.8-3.3-3.9-3.3-8c0-1.9,0.4-3.6,1.2-5.1
			c0.3-0.5,0.9-0.7,1.3-0.4c0.5,0.3,0.7,0.9,0.4,1.3c-0.7,1.2-1,2.5-1,4.1c0,3.3,1.3,4.9,2.8,6.7c1.5,1.8,3.3,3.9,3.3,8
			C42.4,97.6,41.9,98.1,41.4,98.1z"/>
	</g>
	<g>
		<path class="st41" d="M26.2,98.1c-0.5,0-1-0.4-1-1c0-1.7-1-2.6-2.6-3.9c-1.6-1.2-3.4-2.6-3.4-5.4c0-2.8,1.8-4.2,3.4-5.4
			c1.6-1.3,2.6-2.1,2.6-3.9c0-0.5,0.4-1,1-1c0.5,0,1,0.4,1,1c0,2.8-1.8,4.2-3.4,5.4c-1.6,1.3-2.6,2.1-2.6,3.9c0,1.7,1,2.6,2.6,3.9
			c1.6,1.2,3.4,2.6,3.4,5.4C27.2,97.6,26.8,98.1,26.2,98.1z"/>
	</g>
</g>
</svg>
