<?xml version="1.0" encoding="utf-8"?>
<!-- Generator: Adobe Illustrator 22.0.1, SVG Export Plug-In . SVG Version: 6.00 Build 0)  -->
<svg version="1.1" id="Layer_1" xmlns="http://www.w3.org/2000/svg" xmlns:xlink="http://www.w3.org/1999/xlink" x="0px" y="0px"
	 viewBox="0 0 205 150" style="enable-background:new 0 0 205 150;" xml:space="preserve">
<style type="text/css">
	.st0{stroke:#000000;stroke-width:0.4301;stroke-linecap:round;stroke-linejoin:round;stroke-miterlimit:10;}
	.st1{fill:none;stroke:#000000;stroke-width:2.0987;stroke-linecap:round;stroke-linejoin:round;stroke-miterlimit:10;}
	.st2{fill:#ED1C24;stroke:#000000;stroke-width:0.6708;stroke-linecap:round;stroke-linejoin:round;stroke-miterlimit:10;}
	.st3{stroke:#000000;stroke-width:0.8531;stroke-linecap:round;stroke-linejoin:round;stroke-miterlimit:10;}
	.st4{stroke:#000000;stroke-width:0.4301;stroke-miterlimit:10;}
	.st5{fill:#FFFFFF;stroke:#FFFFFF;stroke-width:0.3324;stroke-linecap:round;stroke-linejoin:round;stroke-miterlimit:10;}
	.st6{fill:#FFFFFF;stroke:#FFFFFF;stroke-width:0.3498;stroke-linecap:round;stroke-linejoin:round;stroke-miterlimit:10;}
	.st7{fill:#FFFFFF;}
	.st8{fill:#8DC63F;stroke:#000000;stroke-width:0.3577;stroke-miterlimit:10;}
	.st9{fill:#2B3990;stroke:#000000;stroke-width:0.3577;stroke-miterlimit:10;}
	.st10{fill:#009444;stroke:#000000;stroke-width:0.3577;stroke-miterlimit:10;}
	.st11{fill:#FFDE17;stroke:#000000;stroke-width:0.3577;stroke-miterlimit:10;}
	.st12{fill:#1B75BC;stroke:#000000;stroke-width:0.3577;stroke-miterlimit:10;}
	.st13{fill:#92278F;stroke:#000000;stroke-width:0.3577;stroke-miterlimit:10;}
	.st14{fill:#F15A29;stroke:#000000;stroke-width:0.3577;stroke-miterlimit:10;}
	.st15{fill:#7F3F98;stroke:#000000;stroke-width:0.3577;stroke-miterlimit:10;}
	.st16{fill:#FFFFFF;stroke:#000000;stroke-width:0.3577;stroke-miterlimit:10;}
	.st17{fill:#2B3990;stroke:#000000;stroke-width:0.4301;stroke-miterlimit:10;}
	.st18{fill:#39B54A;stroke:#5E7134;stroke-width:0.1878;stroke-linecap:round;stroke-linejoin:round;stroke-miterlimit:10;}
	.st19{fill:none;stroke:#5E7134;stroke-width:0.1878;stroke-linecap:round;stroke-linejoin:round;stroke-miterlimit:10;}
	.st20{fill:#95AB3B;stroke:#5E7134;stroke-width:0.1878;stroke-linecap:round;stroke-linejoin:round;stroke-miterlimit:10;}
	.st21{fill:#39B54A;stroke:#5E7134;stroke-width:0.1782;stroke-linecap:round;stroke-linejoin:round;stroke-miterlimit:10;}
	.st22{fill:none;stroke:#5E7134;stroke-width:0.1782;stroke-linecap:round;stroke-linejoin:round;stroke-miterlimit:10;}
	.st23{fill:#95AB3B;stroke:#5E7134;stroke-width:0.1782;stroke-linecap:round;stroke-linejoin:round;stroke-miterlimit:10;}
	.st24{fill:#8DC63F;stroke:#5E7134;stroke-width:0.1782;stroke-linecap:round;stroke-linejoin:round;stroke-miterlimit:10;}
	.st25{fill:#8C1417;stroke:#431813;stroke-width:0.2874;stroke-miterlimit:10;}
	.st26{fill:#EF4136;stroke:#BE1E2D;stroke-width:0.2874;stroke-miterlimit:10;}
	.st27{fill:#691D14;stroke:#431813;stroke-width:0.2874;stroke-miterlimit:10;}
	.st28{fill:#BB2026;stroke:#9F1D21;stroke-width:0.2874;stroke-miterlimit:10;}
	.st29{fill:#A71E22;stroke:#701D19;stroke-width:0.2874;stroke-miterlimit:10;}
	.st30{fill:#ED1C24;stroke:#691D14;stroke-width:0.2874;stroke-miterlimit:10;}
	.st31{fill:#E94924;stroke:#BE1E2D;stroke-width:0.2874;stroke-miterlimit:10;}
	.st32{fill:#39B54A;stroke:#5E7134;stroke-width:0.1549;stroke-linecap:round;stroke-linejoin:round;stroke-miterlimit:10;}
	.st33{fill:none;stroke:#5E7134;stroke-width:0.1549;stroke-linecap:round;stroke-linejoin:round;stroke-miterlimit:10;}
	.st34{fill:#95AB3B;stroke:#5E7134;stroke-width:0.1549;stroke-linecap:round;stroke-linejoin:round;stroke-miterlimit:10;}
	.st35{fill:#39B54A;stroke:#5E7134;stroke-width:0.1864;stroke-linecap:round;stroke-linejoin:round;stroke-miterlimit:10;}
	.st36{fill:none;stroke:#5E7134;stroke-width:0.1864;stroke-linecap:round;stroke-linejoin:round;stroke-miterlimit:10;}
	.st37{fill:#95AB3B;stroke:#5E7134;stroke-width:0.1864;stroke-linecap:round;stroke-linejoin:round;stroke-miterlimit:10;}
	.st38{fill:#8DC63F;stroke:#5E7134;stroke-width:0.161;stroke-linecap:round;stroke-linejoin:round;stroke-miterlimit:10;}
	.st39{fill:none;stroke:#5E7134;stroke-width:0.161;stroke-linecap:round;stroke-linejoin:round;stroke-miterlimit:10;}
	.st40{fill:#95AB3B;stroke:#5E7134;stroke-width:0.161;stroke-linecap:round;stroke-linejoin:round;stroke-miterlimit:10;}
</style>
<g>
	<g>
		<g>
			<path class="st0" d="M9.3,14c0.2,0,0.2-0.3,0.3-0.4c0.1-0.6,0.3-1.2,0.4-1.8c0.5-2.1,1-4.2,0.9-6.3c-0.1-1.6-1.2-3.3-2.8-3.8
				C8,1.6,7.9,1.6,7.8,1.6C6.6,1.3,5.3,1.7,4.4,2.5S2.7,4.3,2.1,5.4C-0.3,10-0.5,15.8,1.5,20.7c1.2,2.8,3.2,5.3,6,6.3
				c2.8,1,6,0.3,8.8-0.9c6.3-2.6,11.8-7.2,15.5-13c0.8-1.3,1.6-2.7,1.9-4.2c0.3-1.5,0.2-3.2-0.7-4.5c-1.7-2.5-4.8-1.8-7.1-0.5
				c-5.2,2.9-8.3,8.5-10.8,13.8c-2.9,6.2-4.4,12.9-4.5,19.7c0,1,0,2,0,3c0.1,2.9,0.2,6,1.2,8.7c0.3,0.9,0.9,2.2,2.1,2.1
				c0.9-0.1,1.6-1,2-1.7c0.3-0.4,0.6-1,0.8-1.5c0.3-1,0.3-2.2,0.5-3.3c0.2-1.1,0.3-2.2,0.5-3.3c0.7-4.2,1.2-8.4,2.1-12.6
				c1.4-6.8,3.4-13.5,6.5-19.8c0.3-0.6,0.7-1.3,1.2-1.8c0.7-0.7,1.8-1.1,2.7-0.4c0.9,0.7,0.7,2.1,0.3,3.2C28,16.4,23,21.8,16.7,24.5
				c-2.8,1.2-6.2,1.9-9,0.5c-1.7-0.9-2.9-2.5-3.8-4.2C1.6,16.1,1.7,10.2,4.2,5.6C4.6,5,5.1,4.3,5.7,3.8s1.5-0.7,2.2-0.4
				c0.7,0.3,1.2,1,1.4,1.7c0.2,0.7,0.2,1.5,0.2,2.3c-0.1,2.3-0.3,3.9-0.4,6.2C9,13.6,9.2,14,9.3,14C9.2,14,9.3,14,9.3,14z"/>
			<path class="st0" d="M16.4,47.2c0.4-0.3,0.6-1.4,0.7-1.9c0.5-1.5,1-2.9,1.6-4.4c0.7-1.9,1.4-3.7,2.2-5.5c0.7-1.7,1.4-3.4,2.3-5
				c1.1-2,2.4-3.8,4-5.4c1-1,2.1-2,3.5-2.2c1-0.1,2.1,0.2,2.8,0.8c1.7,1.5,1.8,4.8,2,6.9c0.2,2.7,0.3,5.4,0.3,8.1
				c0,2.6-0.1,5.3-0.5,7.9c-0.2,1.6-0.5,3.7-1.5,5c-2.9,3.7-6.4,0.9-5.2-3.5c0.8-3,1.3-6.1,1.6-9.2c0.2-1.6,0.3-3.2,0.2-4.8
				c0-1,0.2-3.5-1-3.9c-0.5-0.2-1.1,0-1.6,0.3c-0.5,0.3-0.8,0.8-1.1,1.3c-2.8,4.3-4.5,9-7,13.5c-0.4,0.7-4.3,7.7-5.5,5.3
				c0-0.1-0.1-0.2-0.1-0.2C14.2,50.3,15.2,48.2,16.4,47.2z"/>
			<path class="st0" d="M33.8,36.2c3.1-7.5,9.7-25.5,17.7-24.2s4.7,21.1,2.4,27.3s-9.5,27.8-5.2,30.5c4.4,2.7,10.4-3.4,9.9-7.7
				c-0.5-4.3-3.5-3.5-4.7-2.4c-1.1,1.1-2.7,5.5-3.6,5c-0.6-0.3-0.3-1.9,0.2-2.9c0.7-1.5,3.3-6.8,7.7-4.5c5,2.7-0.3,18.9-10.4,16.8
				c-10-2.1-3.4-23.8-2.7-26.9c0.6-3.1,5.8-22.4,4.6-27.3s-5.4-2.5-7.4,4.5c-2,7-7,24.3-9.2,25.7S33.8,36.2,33.8,36.2z"/>
			<path class="st0" d="M65.4,49.2c-0.4-6.9,2-12.5,3.4-15.6c1.4-3.1,3.9-3.7,5.7-3.1c1.8,0.6,0.9,3.7,0,5.5c-0.9,1.9-4.4,12-4.8,14
				c-0.4,2-0.3,5.2,2.1,3.3s6.4-8.8,10.8-10.1l0.8,1c0,0-2.2,0.9-4.5,3.6s-4.8,6.5-8.3,7.7C67.2,56.8,65.6,53.1,65.4,49.2z"/>
			<path class="st0" d="M67.2,42c0,0-4.3,3.6-5.9-1.6c-1.7-5.7-0.3-10.5,1.8-10.6s1.6,7.4,1.6,7.4s-0.1,0.9,0.7,0.5
				c0.8-0.4,1-9.8-2.5-9.5c-3.4,0.2-3.9,7.1-3.6,9.8c0.3,2.3,2.8,10,8,5.1V42z"/>
			<path class="st0" d="M73.8,28c0.7,0.9,1.9,1.3,3,1c1-0.3,1.8-1.1,2-2.1s-0.2-2.1-1-2.7c-0.5-0.4-1.1-0.6-1.8-0.7
				C75,23.4,74,24,73.5,25C73,25.9,73.1,27.1,73.8,28z"/>
		</g>
		<path class="st1" d="M78.8,46.7c4.1-3.5,12.2-9.3,18-7.2"/>
	</g>
	<path class="st2" d="M166.4,74.9c8.1,2.8,16.1,6.4,23.4,11c4.1,2.6,8.1,5.2,11.3,8.8c0.1,0.1-1.6,2.1-2,2.3
		c-0.6,0.2-1.8-0.8-2.3-1.1c-1.8-1-3.6-1.9-5.5-2.8c-4.1-2-8.4-3.7-12.5-5.5c-4.4-1.9-8.8-3.9-13.2-5.8c-0.1,0-0.7-0.3-0.7-0.3
		c0.6-1.6,0.4-3.4,1-5C166.1,75.9,166.4,75.4,166.4,74.9z"/>
	<path class="st2" d="M104.6,72.8c10.4-0.2,20.7-2,30.9-1.1c10.1,0.8,20.5,5.9,29.4,9.9c2.2-8.7,4.9-19.1,5.9-28
		c-8.9-3.4-18.3-6.3-27.6-8.5c-14.3-3.4-29.3-5.3-43.7-2.6c0,6.6,1.4,13.1,3.2,19.4C103.8,65.2,103.7,69.5,104.6,72.8z"/>
	<path class="st3" d="M159.1,84.1c-1,6.2-9,10.3-17.8,11c-7,0.5-16.5-3.4-24.7-7.8c-9.4-5-20.2-7.1-30.8-6.1
		c-4,0.4-8.1,1.2-11.9,2.4c-2.5,0.8-5,1.8-7,3.6c-2,1.7-3.5,4.2-3.4,6.9c0.1,2.6,1.9,5.3,4.5,5.7c2.2,0.4,4.5-0.9,5.9-2.7
		c2.6-3.3,2.7-8.2,0.5-11.8c-2.1-3.6-6.2-5.8-10.4-6.2c-4.2-0.4-8.4,1-11.9,3.3s-6.3,5.6-8.5,9.1c-4.5,7.1-7,15.5-7,23.9
		c0,4.1,0.6,8.3,2.3,12c1.7,3.6,4.7,7,8.6,8.2c2.3,0.7,4.8,0.7,7-0.1c2.8-1,5.5-3.5,7-6c1.7-2.8,2.3-5.4,3.4-8.4
		c0.2-0.4,0.3-0.9,0.1-1.3c-0.2-0.5-0.6-0.1-1,0.3c-0.4,0.3-0.7,0.8-0.8,1.3c-0.3,1.3-1.3,3.5-1.9,4.7c-1.4,3-3.1,5.1-6.3,6.3
		c-0.7,0.2-1.4,0.4-2.2,0.3c-0.4,0-0.8-0.1-1.1-0.2c-0.3-0.1-0.8-0.4-1.1-0.4c-1.9-0.9-3-2.9-3.7-4.9c-1.7-4.9-1.5-10.9-1.1-16
		c0.7-7.9,3.1-15.9,8.1-22.1c3-3.8,7.5-7,12.3-6.5c4.7,0.6,8.5,5.4,8,10.2c-0.2,1.7-0.9,3.4-2.2,4.4c-1.3,1.1-3.3,1.4-4.8,0.6
		c-2.2-1.2-2.6-4.4-1.5-6.7c2.2-4.4,8.4-6.7,13.1-7.4c10-1.5,15.3-1.2,20.9-0.4c0,0,9.1,1.6,16.9,5.2c7.8,3.6,18.4,11.4,32,6.6
		c13.7-4.8,10.7-14.2,10.7-14.2C158.8,81,159.2,83.1,159.1,84.1z"/>
	<path d="M83.9,112.4c0,0,0,0-0.1-0.1c0-0.1-0.1-0.2-0.2-0.3c-0.1-0.2-0.4-0.6-0.8-0.8c-0.4-0.2-0.8-0.4-1.5-0.3
		c-0.7,0.1-1.4,0.3-2.2,0.8c-0.8,0.5-1.7,1.3-2.5,2.2l0,0l0,0c0,0,0,0,0,0l0,0l-0.1,0.1l-0.2,0.2l-0.3,0.3c-0.2,0.2-0.4,0.5-0.6,0.7
		c-0.4,0.5-0.7,1-1.1,1.6c-1.4,2.2-2.6,4.7-3.3,7.4c-0.3,1.3-0.5,2.6-0.3,4c0,0.2,0,0.3,0.1,0.5c0,0.1,0.1,0.4,0.1,0.5
		c0.1,0.3,0.1,0.6,0.2,0.9c0.2,0.5,0.4,0.9,0.7,1.1c0.2,0.1,0.4,0.2,0.7,0.3c0.2,0.1,0.5,0.1,0.8,0.1c0.5,0,1.1-0.1,1.7-0.3
		c1.1-0.4,2.1-1,3-1.6c0.5-0.3,0.9-0.6,1.3-0.9c0.4-0.3,0.7-0.6,1.1-1c0.6-0.6,1.1-1.3,1.5-1.8c0.4-0.5,0.7-1,0.8-1.3
		c0.2-0.3,0.3-0.5,0.3-0.5l0,0c0.1-0.1,0.2-0.1,0.3-0.1c0.1,0,0.1,0.1,0.1,0.2c0,0,0,0.2-0.1,0.6c-0.1,0.4-0.2,0.9-0.5,1.6
		c-0.3,0.7-0.6,1.5-1.2,2.3c-0.3,0.4-0.6,0.9-1,1.3c-0.4,0.4-0.8,0.9-1.3,1.3c-1,0.8-2.1,1.5-3.5,2.1c-0.7,0.2-1.5,0.5-2.4,0.5
		c-0.4,0-0.9,0-1.4,0c-0.4-0.1-0.9-0.2-1.4-0.4c-0.5-0.2-0.9-0.6-1.3-0.9c-0.4-0.4-0.7-0.8-0.9-1.2c-0.2-0.4-0.4-0.8-0.6-1.2
		c-0.1-0.2-0.1-0.3-0.2-0.6c-0.1-0.2-0.1-0.4-0.2-0.6c-0.5-1.7-0.7-3.5-0.5-5.3c0.1-1.8,0.6-3.5,1.2-5.1c0.7-1.6,1.5-3,2.5-4.3
		c0.5-0.6,1-1.2,1.6-1.8c0.3-0.3,0.6-0.5,0.9-0.8c0.1-0.1,0.3-0.3,0.5-0.4c0.1-0.1,0.3-0.2,0.4-0.3c1.2-0.9,2.4-1.6,3.7-2.2
		c0.6-0.3,1.3-0.5,1.9-0.6c0.3-0.1,0.8-0.1,1-0.1c0.4,0,0.6,0,0.9,0c0.6,0.1,1.2,0.2,1.7,0.5c0.5,0.2,1,0.6,1.3,0.9
		c0.3,0.3,0.6,0.7,0.7,1c0.2,0.3,0.3,0.6,0.3,0.8c0.1,0.2,0.1,0.4,0.1,0.5c0,0.1,0,0.1,0,0.1c0.1,0.5-0.2,1.1-0.7,1.2
		C84.5,113,84.1,112.8,83.9,112.4z"/>
	<path d="M86.8,117.1c0,0-0.1,0.5-0.2,1.3c-0.1,0.8-0.3,2-0.4,3.3c-0.1,1.3-0.1,2.9,0.1,4.5c0,0.4,0.1,0.8,0.2,1.3
		c0.1,0.4,0.2,0.8,0.3,1.2c0.2,0.7,0.5,1.3,0.9,1.6c0.4,0.3,0.9,0.4,1.6,0.3c0.7-0.2,1.4-0.6,2-1.1c0.2-0.1,0.3-0.3,0.5-0.4
		c0.2-0.1,0.3-0.3,0.5-0.4c0.3-0.3,0.6-0.5,0.9-0.8c0.6-0.5,1.1-1.1,1.5-1.6c0.9-1,1.6-2,2.1-2.6c0.5-0.7,0.7-1.1,0.7-1.1
		c0.1-0.1,0.2-0.1,0.3-0.1c0.1,0.1,0.1,0.1,0.1,0.2c0,0-0.1,0.5-0.4,1.3c-0.3,0.8-0.8,1.9-1.6,3.2c-0.4,0.6-0.9,1.3-1.4,1.9
		c-0.3,0.3-0.6,0.7-0.9,1c-0.1,0.2-0.3,0.3-0.5,0.5c-0.2,0.2-0.3,0.3-0.5,0.5c-0.7,0.6-1.5,1.3-2.6,1.7c-0.1,0.1-0.3,0.1-0.4,0.1
		c-0.2,0.1-0.2,0.1-0.4,0.1c-0.3,0.1-0.6,0.1-1,0.1c-0.7,0-1.4-0.2-1.9-0.6c-1.2-0.7-1.9-1.8-2.3-2.9c-0.2-0.5-0.4-1-0.5-1.5
		c-0.1-0.5-0.3-0.9-0.4-1.4c-0.5-1.8-0.7-3.6-0.8-5.1c-0.1-1.5-0.2-2.7-0.2-3.5c0-0.8-0.1-1.3-0.1-1.3c-0.1-1.4,1.7-1.8,2.5-1.8
		c0.6,0,2.4,0.2,2.4,1.6C86.8,116.8,86.8,117,86.8,117.1z"/>
	<path d="M190.8,112.4c0,0,0,0-0.1-0.1c0-0.1-0.1-0.2-0.2-0.3c-0.1-0.2-0.4-0.6-0.8-0.8c-0.4-0.2-0.8-0.4-1.5-0.3
		c-0.7,0.1-1.4,0.3-2.2,0.8c-0.8,0.5-1.7,1.3-2.5,2.2l0,0l0,0c0,0,0,0,0,0l0,0l-0.1,0.1l-0.2,0.2l-0.3,0.3c-0.2,0.2-0.4,0.5-0.6,0.7
		c-0.4,0.5-0.7,1-1.1,1.6c-1.4,2.2-2.6,4.7-3.3,7.4c-0.3,1.3-0.5,2.6-0.3,4c0,0.2,0,0.3,0.1,0.5c0,0.1,0.1,0.4,0.1,0.5
		c0.1,0.3,0.1,0.6,0.2,0.9c0.2,0.5,0.4,0.9,0.7,1.1c0.2,0.1,0.4,0.2,0.7,0.3c0.2,0.1,0.5,0.1,0.8,0.1c0.5,0,1.1-0.1,1.7-0.3
		c1.1-0.4,2.1-1,3-1.6c0.5-0.3,0.9-0.6,1.3-0.9c0.4-0.3,0.7-0.6,1.1-1c0.6-0.6,1.1-1.3,1.5-1.8c0.4-0.5,0.7-1,0.8-1.3
		c0.2-0.3,0.3-0.5,0.3-0.5l0,0c0.1-0.1,0.2-0.1,0.3-0.1c0.1,0,0.1,0.1,0.1,0.2c0,0,0,0.2-0.1,0.6c-0.1,0.4-0.2,0.9-0.5,1.6
		c-0.3,0.7-0.6,1.5-1.2,2.3c-0.3,0.4-0.6,0.9-1,1.3c-0.4,0.4-0.8,0.9-1.3,1.3c-1,0.8-2.1,1.5-3.5,2.1c-0.7,0.2-1.5,0.5-2.4,0.5
		c-0.4,0-0.9,0-1.4,0c-0.4-0.1-0.9-0.2-1.4-0.4c-0.5-0.2-0.9-0.6-1.3-0.9c-0.4-0.4-0.7-0.8-0.9-1.2c-0.2-0.4-0.4-0.8-0.6-1.2
		c-0.1-0.2-0.1-0.3-0.2-0.6c-0.1-0.2-0.1-0.4-0.2-0.6c-0.5-1.7-0.7-3.5-0.5-5.3c0.1-1.8,0.6-3.5,1.2-5.1c0.7-1.6,1.5-3,2.5-4.3
		c0.5-0.6,1-1.2,1.6-1.8c0.3-0.3,0.6-0.5,0.9-0.8c0.1-0.1,0.3-0.3,0.5-0.4c0.1-0.1,0.3-0.2,0.4-0.3c1.2-0.9,2.4-1.6,3.7-2.2
		c0.6-0.3,1.3-0.5,1.9-0.6c0.3-0.1,0.8-0.1,1-0.1c0.4,0,0.6,0,0.9,0c0.6,0.1,1.2,0.2,1.7,0.5c0.5,0.2,1,0.6,1.3,0.9
		c0.3,0.3,0.6,0.7,0.7,1c0.2,0.3,0.3,0.6,0.3,0.8c0.1,0.2,0.1,0.4,0.1,0.5c0,0.1,0,0.1,0,0.1c0.1,0.5-0.2,1.1-0.7,1.2
		C191.5,113,191,112.8,190.8,112.4z"/>
	<path d="M193.8,117.1c0,0-0.1,0.5-0.2,1.3c-0.1,0.8-0.3,2-0.4,3.3c-0.1,1.3-0.1,2.9,0.1,4.5c0,0.4,0.1,0.8,0.2,1.3
		c0.1,0.4,0.2,0.8,0.3,1.2c0.2,0.7,0.5,1.3,0.9,1.6c0.4,0.3,0.9,0.4,1.6,0.3c0.7-0.2,1.4-0.6,2-1.1c0.2-0.1,0.3-0.3,0.5-0.4
		c0.2-0.1,0.3-0.3,0.5-0.4c0.3-0.3,0.6-0.5,0.9-0.8c0.6-0.5,1.1-1.1,1.5-1.6c0.9-1,1.6-2,2.1-2.6c0.5-0.7,0.7-1.1,0.7-1.1
		c0.1-0.1,0.2-0.1,0.3-0.1c0.1,0.1,0.1,0.1,0.1,0.2c0,0-0.1,0.5-0.4,1.3c-0.3,0.8-0.8,1.9-1.6,3.2c-0.4,0.6-0.9,1.3-1.4,1.9
		c-0.3,0.3-0.6,0.7-0.9,1c-0.1,0.2-0.3,0.3-0.5,0.5c-0.2,0.2-0.3,0.3-0.5,0.5c-0.7,0.6-1.5,1.3-2.6,1.7c-0.1,0.1-0.3,0.1-0.4,0.1
		c-0.2,0.1-0.2,0.1-0.4,0.1c-0.3,0.1-0.6,0.1-1,0.1c-0.7,0-1.4-0.2-1.9-0.6c-1.2-0.7-1.9-1.8-2.3-2.9c-0.2-0.5-0.4-1-0.5-1.5
		c-0.1-0.5-0.3-0.9-0.4-1.4c-0.5-1.8-0.7-3.6-0.8-5.1c-0.1-1.5-0.2-2.7-0.2-3.5c0-0.8-0.1-1.3-0.1-1.3c-0.1-1.4,1.7-1.8,2.5-1.8
		c0.6,0,2.4,0.2,2.4,1.6C193.8,116.8,193.8,117,193.8,117.1z"/>
	<path class="st4" d="M102.2,100.9c0,0.1,0,0.2,0,0.3c0,0,0,0.1,0,0.1l0,0.1c0,0,0,0.1,0,0.1c0,0.2,0.1,0.5,0.2,0.7
		c0.9,1.8,2.3,3.5,4,4.5c1.5,0.9,3.7,1.5,4.3,3.3c0.3,1.1,0,2.2-0.3,3.2c-0.4,1.9-0.8,3.8-1.1,5.7c-0.6,3.8-1.1,7.7-1.1,11.6
		c0,1.2,0.2,2.7,1.2,3.3c1,0.6,3-0.4,4-1.1c3.4-2.2,4.5-5.3,6.2-9.3c0.1-0.2,0.1-0.4,0.3-0.5c0.1-0.1,0.4-0.2,0.5,0
		c0.2,0.2,0.1,0.4,0,0.6c-1.1,2.5-1.8,5.3-3.5,7.5c-0.9,1.1-1.8,2.3-3,3.1s-2.6,1.4-4,1.3c-1.1-0.1-2-0.5-2.8-1.2
		c-2.6-2.5-2.3-6.8-2.3-10.1c0-2.3,0.2-4.7,0.4-7c0.2-2,0.4-4,0.6-6c0.1-0.7,0.1-1.3-0.1-2c-0.3-0.8-0.9-1.4-1.5-2
		c-1-0.9-2.2-1.8-3-2.9c-0.8-1.1-1.4-2.5-1.1-3.9c0.3-1.3,1.6-2.5,3-2.3c1.2,0.2,2.1,1.3,2.5,2.4c0.4,1.2,0.4,2.6,0.1,3.9
		c-0.7,3.3-2.4,6.4-3.8,9.5c-1.5,3.3-2.9,6.5-4.4,9.8c-0.4,0.8-1,2.2-2,2.3c0.4-1.6,1.4-3,2.1-4.4c0.7-1.5,1.4-3.1,2-4.7
		c0.6-1.6,1.2-3.2,1.8-4.8c0.5-1.5,1.1-2.9,1.7-4.4c0.4-1,0.7-2,0.9-3.1c0.1-0.5,0.2-1.1,0.2-1.6c0-0.5,0-1.1-0.1-1.6
		c-0.1-0.5-0.3-0.9-0.6-1.1c0,0-0.4-0.3-0.9-0.2C102.1,100.3,102.2,100.9,102.2,100.9z"/>
	<path class="st4" d="M125,100.9c0,0.1,0,0.2,0,0.3c0,0,0,0.1,0,0.1l0,0.1c0,0,0,0.1,0,0.1c0,0.2,0.1,0.5,0.2,0.7
		c0.9,1.8,2.3,3.5,4,4.5c1.5,0.9,3.7,1.5,4.3,3.3c0.3,1.1,0,2.2-0.3,3.2c-0.4,1.9-0.8,3.8-1.1,5.7c-0.6,3.8-1.1,7.7-1.1,11.6
		c0,1.2,0.2,2.7,1.2,3.3c1,0.6,3-0.4,4-1.1c3.4-2.2,4.5-5.3,6.2-9.3c0.1-0.2,0.1-0.4,0.3-0.5c0.1-0.1,0.4-0.2,0.5,0
		c0.2,0.2,0.1,0.4,0,0.6c-1.1,2.5-1.8,5.3-3.5,7.5c-0.9,1.1-1.8,2.3-3,3.1s-2.6,1.4-4,1.3c-1.1-0.1-2-0.5-2.8-1.2
		c-2.6-2.5-2.3-6.8-2.3-10.1c0-2.3,0.2-4.7,0.4-7c0.2-2,0.4-4,0.6-6c0.1-0.7,0.1-1.3-0.1-2c-0.3-0.8-0.9-1.4-1.5-2
		c-1-0.9-2.2-1.8-3-2.9c-0.8-1.1-1.4-2.5-1.1-3.9c0.3-1.3,1.6-2.5,3-2.3c1.2,0.2,2.1,1.3,2.5,2.4c0.4,1.2,0.4,2.6,0.1,3.9
		c-0.7,3.3-2.4,6.4-3.8,9.5c-1.5,3.3-2.9,6.5-4.4,9.8c-0.4,0.8-1,2.2-2,2.3c0.4-1.6,1.4-3,2.1-4.4c0.7-1.5,1.4-3.1,2-4.7
		c0.6-1.6,1.2-3.2,1.8-4.8c0.5-1.5,1.1-2.9,1.7-4.4c0.4-1,0.7-2,0.9-3.1c0.1-0.5,0.2-1.1,0.2-1.6c0-0.5,0-1.1-0.1-1.6
		c-0.1-0.5-0.3-0.9-0.6-1.1c0,0-0.4-0.3-0.9-0.2S125,100.9,125,100.9z"/>
	<path class="st4" d="M147.3,120.3c0.5,0.4,1.1,0.6,1.8,0.8c0.6,0.2,1.2,0.2,1.7,0.1c1.4-0.2,2.6-1,3.7-1.7c1.1-0.7,2.2-1.5,3.1-2.6
		c1.1-1.3,1.8-2.9,1.7-4.6c-0.1-1.7-1.1-3.3-2.7-3.9c-1.8-0.7-3.8,0.2-5.4,1.4c-2.8,2-5,4.9-6.5,8c-1.5,3.1-2.4,6.5-2.9,10
		c-0.3,1.8-0.5,3.6,0.1,5.4c0.5,1.6,1.7,2.9,3.4,3.3c1,0.2,2.1,0.2,3.2,0c3.8-0.8,7.1-3.8,8.2-7.5c0.4-1.4,0.4-3-0.5-4
		c-0.8-0.9-2.2-1-3.3-0.6c-1.6,0.5-3,1.9-3.7,3.4c-0.2,0.5-0.7,1.5-0.2,1.9c0.1,0.1,0.3,0.2,0.5,0.2c0.2,0,0.2-0.2,0.3-0.4
		c0.2-0.5,0.3-0.9,0.6-1.4c0.6-1.2,1.6-2.8,3.1-2.8c1.7-0.1,2.5,1.9,2.2,3.4c-0.2,1-0.7,1.9-1.4,2.6c-1,1.3-2.3,2.4-3.7,3.3
		c-0.9,0.5-2.1,1-3,0.3c-0.5-0.4-0.7-1.2-0.8-1.8c-1-7.4,1.8-15.2,7.3-20.3c0.4-0.4,0.9-0.8,1.5-1s1.3-0.2,1.7,0.3
		c0.4,0.4,0.5,0.9,0.4,1.5s-0.3,1-0.6,1.5c-1.7,2.8-4,4.9-7.1,5.3c0,0-1.5,0.1-2-0.5C147.5,119.1,147.3,120.3,147.3,120.3z"/>
	<path class="st4" d="M167.5,144.2c-0.8,0.4-1.6,0.8-2.3,1.1c-3.9,1.9-8.2,3.5-12.5,3.1c-1.6-0.1-3.3-0.7-4.3-1.9
		c-1.1-1.4-1.1-3.4-0.3-4.9c0.7-1.6,2.1-2.8,3.5-3.7c1.2-0.8,2.7-1.5,4.1-1.2c1.7,0.3,3,2.2,2.7,3.9s-2.2,3-3.9,2.7
		c0.8-0.5,1.6-1,2.1-1.8c0.5-0.8,0.6-1.9,0.1-2.6c-0.7-1-2.2-0.9-3.4-0.5c-1.6,0.6-3,1.7-3.6,3.2s-0.5,3.5,0.7,4.6
		c0.9,0.9,2.3,1.3,3.6,1.2s2.6-0.5,3.8-1c3-1.1,6-2.4,8.9-3.9c2.8-1.4,5.3-2.7,8.3-3.4c1.9-0.4,4-0.6,5.9,0.2s3.3,2.7,2.9,4.7
		c-0.6,3.5-5.7,4.2-8.6,3.9c-7.3-0.8-12.7-7.7-13.6-14.5c-0.5-4.2,0.1-8.5,0.8-12.7c1.4-8.7,2.7-17.3,4.1-26c0.2-1,0.3-2.1,1-2.9
		c1.1-1.3,3.2-1.3,4.6-0.4c1.4,0.9,2.1,2.6,2.2,4.3c0.1,1.7-0.2,3.3-0.6,5c-2,9.1-4,18.2-5.9,27.4c-0.7,3.3-1.4,6.6-1,9.9
		c0.4,2.9,1.8,5.9,4.5,7.2c2.7,1.4,5.9,1.7,8.8,0.8c1-0.3,2.1-0.9,2.4-1.9c0.4-1.1-0.4-2.5-1.4-3c-1.1-0.6-2.4-0.6-3.6-0.4
		C173.9,141.3,170.7,142.7,167.5,144.2z"/>
	<path class="st4" d="M154.2,102c2,0,19.6-0.3,29.6-2.1c0.3,0,0.5,0.2,0.5,0.4v0.6c0,0.2-0.2,0.4-0.4,0.5
		c-3.5,0.4-27.8,3.1-33.6,3.3c-0.1,0-0.2-0.2-0.1-0.3l3.7-2.3C153.9,102,154,102,154.2,102z"/>
	<path class="st2" d="M91.2,24.2c0,0,9.4,38.4,10,47.7c0,0,1.9,2.2,4.9,1c3-1.1,3.1-44.8-1.4-52.5C102.7,17,91.2,24.2,91.2,24.2z"/>
	<path class="st2" d="M131.7,55.2l1.7-34.4c0,0,7.5-0.5,12.5,1.4l-4.6,35.1L131.7,55.2z"/>
	<path class="st2" d="M159.7,79c0,0,2.1-47.8,3.8-50.4s12.6,2.9,13.3,5.4s-4.9,23.2-4.9,23.2L165.7,82L159.7,79z"/>
	<path class="st2" d="M135.9,37.8c-15.2-2.7-38.4-1.4-42.1,0.7c0,0,0.9,5.4,1.7,6.6c0.9,1.3,17.5-3.4,41.9,2.3
		c23.6,5.4,35.2,12.3,35.2,12.3s3.2-2.8,2.5-6.5C174.4,49.5,150.8,40.4,135.9,37.8z"/>
	<g>
		<path class="st5" d="M99.9,30.4c0.5-1.7,1.5-3.2,3-4.1c-0.9-0.6-2-0.8-3.1-0.5c-0.2-0.8-0.6-1.6-1.2-2.3c-0.2-0.2-0.4-0.4-0.7-0.3
			c-0.2,0.1-0.3,0.2-0.4,0.4c-0.5,0.9-0.7,1.8-0.8,2.8c-1.1-0.1-2.1,0.8-2.3,1.8c1-0.4,2.2-0.4,3.2,0C98.6,28.7,99.4,29.5,99.9,30.4
			"/>
		<path class="st5" d="M101,35.5c-0.4-1.9-0.1-3.9,0.7-5.6c0.3-0.6,0.7-1.2,1.3-1.5c0.6-0.2,1.5,0,1.6,0.7c0.1,0.5-0.2,1-0.5,1.4
			c-0.7,0.9-1.3,1.8-2,2.7c-0.2,0.3-0.4,0.6-0.6,0.9c-0.1,0.2-0.3,0.9-0.5,1c-0.4,0.3-0.6-1.1-0.7-1.4c-0.5-1.3-1.3-2.5-2.4-3.4
			c-0.4-0.3-0.8-0.6-1.3-0.7s-1.1,0.2-1.2,0.7c-0.1,0.4,0.2,0.9,0.5,1.2c0.4,0.3,0.8,0.4,1.2,0.6c1.8,0.7,3.2,2.2,3.9,4"/>
	</g>
	<g>
		<path class="st6" d="M138.5,31.1c1.1-1.3,2.7-2.3,4.3-2.6c-0.5-0.9-1.5-1.6-2.6-1.7c0.2-0.8,0.1-1.7-0.2-2.5
			c-0.1-0.2-0.2-0.5-0.5-0.6c-0.2,0-0.4,0.1-0.6,0.2c-0.8,0.6-1.4,1.4-1.8,2.2c-0.9-0.5-2.2-0.2-2.8,0.7c1.1,0.1,2.1,0.5,2.9,1.3
			C138,29,138.5,30.1,138.5,31.1"/>
		<path class="st6" d="M137.5,36.2c0.4-1.8,1.4-3.5,2.9-4.7c0.5-0.4,1.1-0.8,1.8-0.8c0.7,0,1.3,0.6,1.2,1.3c-0.1,0.5-0.6,0.8-1,1.1
			c-1,0.6-1.9,1.1-2.9,1.7c-0.3,0.2-0.6,0.4-0.9,0.5c-0.2,0.1-0.7,0.7-0.9,0.7c-0.5,0.1-0.1-1.2-0.1-1.6c0.1-1.4-0.2-2.8-0.8-4
			c-0.2-0.5-0.5-0.9-0.9-1.2s-1.1-0.2-1.4,0.2c-0.3,0.4-0.2,0.9,0,1.3s0.6,0.7,0.9,1c1.3,1.4,2.1,3.3,2,5.2"/>
	</g>
	<path class="st7" d="M105.4,69.2c-1.6-1.5-2.1-2-2.3-5.5c0.3,0.1,0.5,0.2,0.8,0.2c1,0.1,1.9-0.5,2.3-1.4c0.4-1-0.1-2.1-1-2.6
		c-1-0.5-2.2,0.1-2.8,0.9c0-0.1,0-0.1,0-0.2c0-0.8,0.5-1.5,1.1-2.2c0.1-0.2,0.3-0.4,0.4-0.5c1.3-1.9,1.8-4.4,1.5-6.7
		c0-0.3-0.1-0.5-0.1-0.7c0,0,0-0.1,0-0.1c-0.3-1.4-0.9-2.7-1.8-3.8c-0.2-0.3-0.6-0.3-0.9-0.1c-0.3,0.2-0.3,0.6-0.1,0.9
		c0.8,1,1.4,2.2,1.6,3.5c0,0,0,0.1,0,0.1c0,0.1,0,0.2,0,0.3c0.1,1-0.2,2.1-0.8,2.9c0-0.2,0-0.3,0-0.5c-0.2-1.1-1.3-2-2.5-1.9
		c-1.2,0.1-2.1,1.3-1.9,2.4c0.1,1.1,1.1,2,2.3,2.2c0.1,0,0.2,0,0.3,0c0.8,0,1.6-0.3,2.2-0.9c-0.2,0.6-0.5,1.2-0.9,1.7
		c-0.1,0.2-0.2,0.3-0.4,0.5c-0.6,0.8-1.3,1.8-1.3,2.9c0,0.7,0.2,1.4,0.7,2c0,0.3,0,0.7,0,1c0.1,2.4,0.5,6.3,1.6,8.5
		c0,0,0.7,0.6,1.1,0c0.4-0.6,0.1-0.8-0.1-1.2c-0.2-0.6,0.3-0.9,0.6-1C105.4,69.9,105.6,69.5,105.4,69.2z M105,62.1
		c-0.1,0.4-0.6,0.6-1,0.6c-0.3,0-0.6-0.2-0.8-0.4c0.1-0.2,0.1-0.4,0.3-0.6c0.3-0.4,0.8-0.7,1.2-0.5C104.9,61.3,105.1,61.8,105,62.1z
		"/>
	<g>
		<path class="st6" d="M168.8,40.8c-0.5-1.8-1.6-3.4-3.2-4.4c0.9-0.7,2.2-0.9,3.3-0.5c0.2-0.9,0.7-1.8,1.3-2.4
			c0.2-0.2,0.5-0.4,0.7-0.3c0.2,0.1,0.4,0.3,0.5,0.5c0.5,0.9,0.8,1.9,0.8,3c1.1-0.1,2.2,0.8,2.4,1.9c-1.1-0.4-2.3-0.4-3.4,0
			C170.2,38.9,169.3,39.8,168.8,40.8"/>
		<path class="st6" d="M167.6,46.2c0.4-2,0.1-4.1-0.8-5.9c-0.3-0.6-0.8-1.3-1.4-1.6c-0.7-0.3-1.6,0-1.7,0.7c-0.1,0.5,0.2,1,0.5,1.5
			c0.7,1,1.4,1.9,2.1,2.9c0.2,0.3,0.4,0.6,0.6,0.9c0.1,0.2,0.4,1,0.5,1.1c0.5,0.3,0.6-1.1,0.8-1.5c0.5-1.4,1.4-2.6,2.5-3.6
			c0.4-0.4,0.9-0.7,1.4-0.7c0.5-0.1,1.1,0.2,1.3,0.8c0.1,0.5-0.2,1-0.6,1.3c-0.4,0.3-0.9,0.4-1.3,0.6c-1.9,0.8-3.4,2.3-4.2,4.2"/>
	</g>
	<path class="st7" d="M161.4,77.5c0.3,0.1,0.7,0.4,0.4,0.9c-0.2,0.4-0.5,0.5-0.2,1c0.2,0.5,0.9,0.1,0.9,0.1c1.2-1.7,1.9-4.9,2.2-6.9
		c0-0.3,0.1-0.5,0.1-0.8c0.4-0.5,0.7-1,0.8-1.6c0.1-1-0.4-1.8-0.8-2.6c-0.1-0.2-0.2-0.3-0.3-0.5c-0.3-0.5-0.4-1-0.6-1.5
		c0.5,0.5,1.1,0.9,1.8,0.9c0.1,0,0.2,0,0.2,0c1,0,1.9-0.7,2.1-1.6c0.2-0.9-0.4-2-1.4-2.2c-0.9-0.2-2,0.4-2.3,1.3
		c0,0.1-0.1,0.3-0.1,0.4c-0.4-0.7-0.5-1.7-0.4-2.5c0-0.1,0-0.1,0.1-0.2c0,0,0,0,0-0.1c0.3-1,0.9-2,1.7-2.8c0.2-0.2,0.2-0.5,0-0.7
		c-0.2-0.2-0.5-0.2-0.7,0c-0.9,0.8-1.5,1.9-1.9,3c0,0,0,0,0,0.1c-0.1,0.2-0.1,0.4-0.2,0.6c-0.5,1.9-0.3,4,0.6,5.7
		c0.1,0.2,0.2,0.3,0.3,0.5c0.4,0.6,0.7,1.3,0.7,1.9c0,0.1,0,0.1,0,0.2c-0.4-0.7-1.3-1.3-2.2-1c-0.8,0.3-1.3,1.2-1.1,2
		c0.2,0.8,0.9,1.3,1.8,1.4c0.2,0,0.5,0,0.7-0.1c-0.5,2.8-1,3.2-2.5,4.3C161,77,161.2,77.4,161.4,77.5z M135.1,69.4
		c0.3,0.1,0.7,0.3,0.6,0.8c-0.1,0.4-0.4,0.6-0.1,1.1c0.3,0.5,1,0,1,0c1-1.9,1.4-5.3,1.4-7.4c0-0.3,0-0.6,0-0.9
		c0.4-0.5,0.6-1.2,0.6-1.8c0-1-0.6-1.9-1.1-2.6c-0.1-0.2-0.2-0.3-0.3-0.4c-0.3-0.5-0.6-1-0.8-1.5c0.6,0.5,1.3,0.8,2,0.8
		c0.1,0,0.2,0,0.3,0c1-0.1,1.9-0.9,2-1.9c0.1-1-0.7-2-1.7-2.1c-1-0.1-2,0.6-2.2,1.6c0,0.1,0,0.3,0,0.4c-0.5-0.6-0.8-1.7-0.7-2.5
		c0-0.1,0-0.1,0-0.2c0,0,0-0.1,0-0.1c0.2-1.1,0.7-2.2,1.4-3.1c0.2-0.2,0.2-0.6-0.1-0.8c-0.2-0.2-0.6-0.2-0.8,0.1
		c-0.8,1-1.3,2.1-1.6,3.3c0,0,0,0.1,0,0.1c-0.1,0.2-0.1,0.4-0.1,0.6c-0.3,2,0.2,4.2,1.3,5.9c0.1,0.2,0.2,0.3,0.3,0.5
		c0.5,0.6,0.9,1.2,0.9,1.9c0,0.1,0,0.1,0,0.2c-0.5-0.7-1.5-1.2-2.4-0.8c-0.8,0.4-1.2,1.4-0.9,2.2c0.3,0.8,1.1,1.3,2,1.2
		c0.2,0,0.5-0.1,0.7-0.2c-0.2,3-0.7,3.5-2,4.8C134.6,69,134.9,69.4,135.1,69.4z M162.6,70c0.4-0.2,0.9,0.1,1.1,0.5
		c0.1,0.2,0.2,0.4,0.2,0.6c-0.2,0.2-0.5,0.3-0.7,0.4c-0.4,0-0.8-0.2-0.9-0.5C162.2,70.6,162.3,70.2,162.6,70z"/>
	<path class="st7" d="M120.3,39.7c-0.3,0-0.5,0.1-0.8,0.2c0-0.1,0.1-0.2,0.1-0.4c0-0.7-0.6-1.3-1.3-1.3c-0.7,0-1.3,0.6-1.3,1.3
		c0,0,0,0,0,0.1c-0.2-0.2-0.5-0.3-0.8-0.3c-0.7,0-1.3,0.6-1.3,1.3c0,0.7,0.6,1.3,1.3,1.3c0.2,0,0.5-0.1,0.7-0.2c0,0.1,0,0.2,0,0.3
		c0,0.7,0.6,1.3,1.3,1.3c0.7,0,1.3-0.6,1.3-1.3c0-0.1,0-0.1,0-0.2c0.2,0.2,0.5,0.4,0.9,0.4c0.7,0,1.3-0.6,1.3-1.3
		C121.6,40.3,121.1,39.7,120.3,39.7z"/>
	<path class="st7" d="M154.9,46.7c-0.3-0.1-0.6,0-0.8,0.1c0.1-0.1,0.1-0.2,0.1-0.3c0.1-0.7-0.3-1.4-1-1.5s-1.4,0.3-1.5,1
		c0,0,0,0,0,0.1c-0.2-0.2-0.4-0.4-0.7-0.4c-0.7-0.1-1.4,0.3-1.5,1c-0.1,0.7,0.3,1.4,1,1.5c0.2,0,0.5,0,0.7-0.1
		c0,0.1-0.1,0.2-0.1,0.3c-0.1,0.7,0.3,1.4,1,1.5s1.4-0.3,1.5-1c0-0.1,0-0.1,0-0.2c0.2,0.3,0.5,0.5,0.8,0.5c0.7,0.1,1.4-0.3,1.5-1
		C156.1,47.6,155.6,46.9,154.9,46.7z"/>
	<g>
		<circle class="st2" cx="136.6" cy="71.8" r="19.7"/>
		<g>
			<polygon class="st8" points="149.5,67 151.9,62.8 147.2,62.8 146.7,65.9 			"/>
			<polygon class="st8" points="125.8,62.8 120.9,62.8 123.6,67.4 126.4,66.3 			"/>
			<polygon class="st8" points="134,85.5 136.4,89.6 138.9,85.4 136.5,83.4 			"/>
			<polygon class="st9" points="150.4,71.7 154.1,68.6 149.5,67 148,69.6 			"/>
			<polygon class="st9" points="129.5,59.8 124.9,58.1 125.8,62.8 129,62.8 			"/>
			<polygon class="st9" points="129.6,83.9 130.4,88.6 134,85.5 132.5,82.8 			"/>
			<polygon class="st10" points="128.5,65.5 129,62.8 125.8,62.8 126.4,66.3 			"/>
			<polygon class="st10" points="146.3,68.3 148,69.6 149.5,67 146.7,65.9 			"/>
			<polygon class="st10" points="134.8,82 132.5,82.8 134,85.5 136.5,83.4 			"/>
			<polygon class="st11" points="134.1,58.1 130.3,55 129.5,59.8 132.6,60.8 			"/>
			<polygon class="st11" points="149.7,76.5 154.2,74.8 150.4,71.7 148.1,73.7 			"/>
			<polygon class="st11" points="125.9,80.9 125.1,85.6 129.6,83.9 129,80.9 			"/>
			<polygon class="st12" points="131.4,62.8 132.6,60.8 129.5,59.8 129,62.8 			"/>
			<polygon class="st12" points="146.8,71.6 148.1,73.7 150.4,71.7 148,69.6 			"/>
			<polygon class="st12" points="131.3,80.9 129,80.9 129.6,83.9 132.5,82.8 			"/>
			<polygon class="st13" points="131.4,62.8 129,62.8 128.5,65.5 130.3,64.9 			"/>
			<polygon class="st13" points="146.8,71.6 148,69.6 146.3,68.3 146,70.2 			"/>
			<polygon class="st13" points="131.3,80.9 132.5,82.8 134.8,82 133.3,80.8 			"/>
			<polygon class="st8" points="149.7,76.5 146.8,77.5 147.4,80.7 152.2,80.7 			"/>
			<polygon class="st8" points="138.9,58.2 136.4,54 134.1,58.1 136.6,60.2 			"/>
			<polygon class="st8" points="123.5,76.8 121.2,80.9 125.9,80.9 126.5,77.8 			"/>
			<polygon class="st14" points="134.8,61.7 136.6,60.2 134.1,58.1 132.6,60.8 			"/>
			<polygon class="st14" points="146.3,75.1 146.8,77.5 149.7,76.5 148.1,73.7 			"/>
			<polygon class="st14" points="128.6,78.6 126.5,77.8 125.9,80.9 129,80.9 			"/>
			<polygon class="st15" points="134.8,61.7 132.6,60.8 131.4,62.8 133.5,62.8 			"/>
			<polygon class="st15" points="146.3,75.1 148.1,73.7 146.8,71.6 146,73.1 			"/>
			<polygon class="st15" points="128.6,78.6 129,80.9 131.3,80.9 130.4,79.2 			"/>
			<polygon class="st14" points="132,79.8 130.4,79.2 131.3,80.9 133.3,80.8 			"/>
			<polygon class="st14" points="131.8,64.3 133.5,62.8 131.4,62.8 130.3,64.9 			"/>
			<polygon class="st14" points="145.7,71.8 146,73.1 146.8,71.6 146,70.2 			"/>
			<polygon class="st9" points="143.4,59.8 142.5,55.1 138.9,58.2 140.5,60.9 			"/>
			<polygon class="st9" points="122.6,72.2 119.1,75.3 123.5,76.8 125.1,74.1 			"/>
			<polygon class="st9" points="143.8,83.9 148.3,85.5 147.4,80.7 144.3,80.7 			"/>
			<polygon class="st10" points="126.8,75.6 125.1,74.1 123.5,76.8 126.5,77.8 			"/>
			<polygon class="st10" points="144.7,78.3 144.3,80.7 147.4,80.7 146.8,77.5 			"/>
			<polygon class="st10" points="138.4,61.7 140.5,60.9 138.9,58.2 136.6,60.2 			"/>
			<polygon class="st15" points="138.4,61.7 136.6,60.2 134.8,61.7 136.8,62.4 			"/>
			<polygon class="st15" points="126.8,75.6 126.5,77.8 128.6,78.6 128.3,76.8 			"/>
			<polygon class="st15" points="145,76.3 144.7,78.3 146.8,77.5 146.3,75.1 			"/>
			<polygon class="st14" points="145.3,74.2 145,76.3 146.3,75.1 146,73.1 			"/>
			<polygon class="st14" points="135.7,62.8 136.8,62.4 134.8,61.7 133.5,62.8 			"/>
			<polygon class="st14" points="129.6,77.8 128.3,76.8 128.6,78.6 130.4,79.2 			"/>
			<polygon class="st16" points="145.3,74.2 146,73.1 145.7,71.8 145.5,73.4 			"/>
			<polygon class="st16" points="129.6,77.8 130.4,79.2 132,79.8 131,78.9 			"/>
			<polygon class="st16" points="135.7,62.8 133.5,62.8 131.8,64.3 133.4,63.7 			"/>
			<polygon class="st11" points="147.2,62.8 147.9,58.1 143.4,59.8 144,62.8 			"/>
			<polygon class="st11" points="138.9,85.4 143,88.7 143.8,83.9 140.4,82.7 			"/>
			<polygon class="st11" points="123.6,67.4 119,69.2 122.6,72.2 125.1,70.1 			"/>
			<polygon class="st14" points="126.8,68.6 126.4,66.3 123.6,67.4 125.1,70.1 			"/>
			<polygon class="st14" points="138.3,82 136.5,83.4 138.9,85.4 140.4,82.7 			"/>
			<polygon class="st14" points="144.4,65.1 146.7,65.9 147.2,62.8 144,62.8 			"/>
			<polygon class="st15" points="134.8,82 136.5,83.4 138.3,82 136.5,81.4 			"/>
			<polygon class="st15" points="146.3,68.3 146.7,65.9 144.4,65.1 144.8,67 			"/>
			<polygon class="st15" points="128.5,65.5 126.4,66.3 126.8,68.6 128.2,67.4 			"/>
			<polygon class="st14" points="135,80.8 133.3,80.8 134.8,82 136.5,81.4 			"/>
			<polygon class="st14" points="129.5,66.3 130.3,64.9 128.5,65.5 128.2,67.4 			"/>
			<polygon class="st14" points="145.1,68.7 146,70.2 146.3,68.3 144.8,67 			"/>
			<polygon class="st16" points="132,79.8 133.3,80.8 135,80.8 133.7,80.4 			"/>
			<polygon class="st16" points="131.8,64.3 130.3,64.9 129.5,66.3 130.8,65.2 			"/>
			<polygon class="st16" points="145.7,71.8 146,70.2 145.1,68.7 145.4,70.3 			"/>
			<polygon class="st12" points="126.2,72 125.1,70.1 122.6,72.2 125.1,74.1 			"/>
			<polygon class="st12" points="141.6,62.8 144,62.8 143.4,59.8 140.5,60.9 			"/>
			<polygon class="st12" points="141.5,80.8 140.4,82.7 143.8,83.9 144.3,80.7 			"/>
			<polygon class="st15" points="126.8,68.6 125.1,70.1 126.2,72 127.2,70.4 			"/>
			<polygon class="st15" points="138.3,82 140.4,82.7 141.5,80.8 139.7,80.8 			"/>
			<polygon class="st15" points="144.4,65.1 144,62.8 141.6,62.8 142.6,64.5 			"/>
			<polygon class="st14" points="138,80.8 136.5,81.4 138.3,82 139.7,80.8 			"/>
			<polygon class="st14" points="128,69 128.2,67.4 126.8,68.6 127.2,70.4 			"/>
			<polygon class="st14" points="143.5,65.9 144.8,67 144.4,65.1 142.6,64.5 			"/>
			<polygon class="st16" points="135,80.8 136.5,81.4 138,80.8 136.7,80.8 			"/>
			<polygon class="st16" points="145.1,68.7 144.8,67 143.5,65.9 144.3,67.3 			"/>
			<polygon class="st16" points="129.5,66.3 128.2,67.4 128,69 128.8,67.5 			"/>
			<polygon class="st13" points="126.2,72 125.1,74.1 126.8,75.6 127.2,73.6 			"/>
			<polygon class="st13" points="141.5,80.8 144.3,80.7 144.7,78.3 142.5,79.1 			"/>
			<polygon class="st13" points="141.6,62.8 140.5,60.9 138.4,61.7 139.7,62.8 			"/>
			<polygon class="st14" points="141,63.9 142.6,64.5 141.6,62.8 139.7,62.8 			"/>
			<polygon class="st14" points="140.9,79.7 139.7,80.8 141.5,80.8 142.5,79.1 			"/>
			<polygon class="st14" points="127.4,72 127.2,70.4 126.2,72 127.2,73.6 			"/>
			<polygon class="st16" points="143.5,65.9 142.6,64.5 141,63.9 142.3,64.9 			"/>
			<polygon class="st16" points="128,69 127.2,70.4 127.4,72 127.7,70.3 			"/>
			<polygon class="st16" points="138,80.8 139.7,80.8 140.9,79.7 139.7,80.2 			"/>
			<polygon class="st14" points="138,62.8 139.7,62.8 138.4,61.7 136.8,62.4 			"/>
			<polygon class="st14" points="143.3,77.7 142.5,79.1 144.7,78.3 145,76.3 			"/>
			<polygon class="st14" points="128,75.1 127.2,73.6 126.8,75.6 128.3,76.8 			"/>
			<polygon class="st16" points="141,63.9 139.7,62.8 138,62.8 139.5,63.4 			"/>
			<polygon class="st16" points="127.4,72 127.2,73.6 128,75.1 127.7,73.3 			"/>
			<polygon class="st16" points="140.9,79.7 142.5,79.1 143.3,77.7 142.3,78.6 			"/>
			<polygon class="st16" points="128,75.1 128.3,76.8 129.6,77.8 128.7,76.2 			"/>
			<polygon class="st16" points="138,62.8 136.8,62.4 135.7,62.8 136.4,62.8 			"/>
			<polygon class="st16" points="144.2,76.2 143.3,77.7 145,76.3 145.3,74.2 			"/>
			<polygon class="st2" points="145.3,74.2 145.5,73.4 145.7,71.8 145.4,70.3 145.1,68.7 144.3,67.3 143.5,65.9 142.3,64.9 
				141,63.9 139.5,63.4 138,62.8 136.4,62.8 135.7,62.8 133.4,63.7 131.8,64.3 130.8,65.2 129.5,66.3 128.8,67.5 128,69 127.7,70.3 
				127.4,72 127.7,73.3 128,75.1 128.7,76.2 129.6,77.8 131,78.9 132,79.8 133.7,80.4 135,80.8 136.7,80.8 138,80.8 139.7,80.2 
				140.9,79.7 142.3,78.6 143.3,77.7 144.2,76.2 			"/>
		</g>
	</g>
	<path class="st17" d="M137.9,65.5L137.9,65.5c1.6-1.1,3.7,0.1,3.5,2l0,0c-0.1,1,0.4,1.9,1.3,2.3v0c1.8,0.8,1.8,3.3,0,4v0
		c-0.9,0.4-1.4,1.3-1.3,2.3l0,0c0.2,1.9-2,3.2-3.5,2l0,0c-0.8-0.6-1.8-0.6-2.6,0h0c-1.6,1.1-3.7-0.1-3.5-2v0c0.1-1-0.4-1.9-1.3-2.3
		l0,0c-1.8-0.8-1.8-3.3,0-4l0,0c0.9-0.4,1.4-1.3,1.3-2.3v0c-0.2-1.9,2-3.2,3.5-2l0,0C136,66.1,137.1,66.1,137.9,65.5z"/>
	<circle class="st11" cx="136.6" cy="71.8" r="2.4"/>
	<g>
		<g>
			<g>
				<path class="st18" d="M90.9,36.8c0,0-0.3,2.1-2.9,3.8c-2.6,1.7-3.7,0.8-3.7,0.8s-0.2-1.7,2-3.2C88.5,36.6,90.9,36.8,90.9,36.8z"
					/>
				<path class="st19" d="M90,37.4c0,0-1.3,1.1-2.5,2s-3.1,2-3.1,2"/>
				<line class="st20" x1="88.9" y1="38.4" x2="89.8" y2="38.2"/>
				<line class="st20" x1="88" y1="38.1" x2="87.8" y2="39.2"/>
				<line class="st20" x1="86.8" y1="38.9" x2="86.4" y2="40.2"/>
				<line class="st20" x1="85.7" y1="40.6" x2="86.6" y2="40.8"/>
			</g>
			<g>
				<path class="st21" d="M79.3,36.1c0,0,2,0.1,3.9,2.3c1.9,2.3,1.1,3.4,1.1,3.4s-1.6,0.3-3.2-1.6C79.4,38.4,79.3,36.1,79.3,36.1z"
					/>
				<path class="st22" d="M80,36.9c0,0,1.2,1.1,2.1,2.2c1,1.1,2.2,2.8,2.2,2.8"/>
				<line class="st23" x1="81" y1="37.9" x2="80.8" y2="37"/>
				<line class="st23" x1="80.2" y1="38.1" x2="81.3" y2="38.3"/>
				<line class="st23" x1="81.5" y1="39.6" x2="82.6" y2="39.7"/>
				<line class="st23" x1="82.3" y1="40.6" x2="83.5" y2="40.9"/>
				<line class="st23" x1="83.4" y1="40.7" x2="83.5" y2="39.8"/>
				<line class="st23" x1="82.5" y1="39.5" x2="82.2" y2="38.6"/>
			</g>
			<g>
				<path class="st24" d="M85.3,34.3c0,0,1.2,1.6,0.6,4.5c-0.6,2.9-2,3-2,3s-1.3-1-0.8-3.5C83.6,35.8,85.3,34.3,85.3,34.3z"/>
				<path class="st22" d="M85.1,35.3c0,0-0.1,1.6-0.4,3.1c-0.3,1.4-0.8,3.4-0.8,3.4"/>
				<line class="st23" x1="85" y1="36.7" x2="85.5" y2="36"/>
				<line class="st23" x1="84.3" y1="36.2" x2="84.9" y2="37.2"/>
				<line class="st23" x1="84" y1="38.1" x2="84.6" y2="39.1"/>
				<line class="st23" x1="83.7" y1="39.4" x2="84.2" y2="40.5"/>
				<line class="st23" x1="84.3" y1="40.3" x2="85" y2="39.8"/>
				<line class="st23" x1="84.6" y1="38.8" x2="85.2" y2="38.1"/>
			</g>
		</g>
		<g>
			
				<ellipse transform="matrix(0.9989 -4.660402e-02 4.660402e-02 0.9989 -1.853 3.8516)" class="st25" cx="81.7" cy="41.7" rx="1.3" ry="1.3"/>
			
				<ellipse transform="matrix(0.9989 -4.660402e-02 4.660402e-02 0.9989 -1.9038 3.9525)" class="st26" cx="83.8" cy="42.8" rx="1.3" ry="1.3"/>
			
				<ellipse transform="matrix(0.9989 -4.660402e-02 4.660402e-02 0.9989 -1.952 4.0282)" class="st27" cx="85.4" cy="43.9" rx="1.3" ry="1.3"/>
			
				<ellipse transform="matrix(0.9989 -4.660402e-02 4.660402e-02 0.9989 -2.0051 3.9389)" class="st28" cx="83.5" cy="45" rx="1.3" ry="1.3"/>
			
				<ellipse transform="matrix(0.9989 -4.660402e-02 4.660402e-02 0.9989 -1.9349 3.8573)" class="st29" cx="81.8" cy="43.4" rx="1.3" ry="1.3"/>
			
				<ellipse transform="matrix(0.9989 -4.660402e-02 4.660402e-02 0.9989 -1.8017 3.9588)" class="st30" cx="84" cy="40.6" rx="1.3" ry="1.3"/>
			
				<ellipse transform="matrix(0.9989 -4.660402e-02 4.660402e-02 0.9989 -1.8806 4.0548)" class="st31" cx="86" cy="42.4" rx="1.3" ry="1.3"/>
		</g>
	</g>
	<g>
		<g>
			<g>
				<path class="st32" d="M157.3,97.5c0,0-1.8-0.4-2.5-2.4c-0.7-2,0.6-2.7,0.6-2.7s1.6,0,2.2,1.7C158.2,95.8,157.3,97.5,157.3,97.5z
					"/>
				<path class="st33" d="M157,96.8c0,0-0.6-1-0.9-2s-0.7-2.4-0.7-2.4"/>
				<line class="st34" x1="156.5" y1="95.9" x2="156.3" y2="96.6"/>
				<line class="st34" x1="157.1" y1="95.4" x2="156.2" y2="95.1"/>
				<line class="st34" x1="156.8" y1="94.4" x2="155.8" y2="94"/>
				<line class="st34" x1="155.6" y1="93.5" x2="155.2" y2="94.1"/>
			</g>
			<g>
				<path class="st35" d="M162.7,89.1c0,0-1.9-0.9-4.9,0.3c-3,1.2-2.9,2.6-2.9,2.6s1.3,1,3.9,0.1C161.4,91.1,162.7,89.1,162.7,89.1z
					"/>
				<path class="st36" d="M161.7,89.4c0,0-1.7,0.4-3.2,1c-1.5,0.6-3.6,1.5-3.6,1.5"/>
				<line class="st37" x1="160.1" y1="89.9" x2="160.9" y2="89.2"/>
				<line class="st37" x1="160.8" y1="90.4" x2="159.6" y2="90"/>
				<line class="st37" x1="158.8" y1="91.1" x2="157.7" y2="90.8"/>
				<line class="st37" x1="157.4" y1="91.7" x2="156.1" y2="91.4"/>
				<line class="st37" x1="156.4" y1="91.3" x2="156.8" y2="90.4"/>
				<line class="st37" x1="157.9" y1="90.6" x2="158.6" y2="89.9"/>
			</g>
			<g>
				<path class="st38" d="M160.7,94.6c0,0-1.6,0.9-3.8-0.2c-2.1-1.1-1.8-2.4-1.8-2.4s1.2-1,3-0.1C160,92.7,160.7,94.6,160.7,94.6z"
					/>
				<path class="st39" d="M160,94.2c0,0-1.3-0.4-2.3-0.9c-1.1-0.5-2.5-1.4-2.5-1.4"/>
				<line class="st40" x1="158.9" y1="93.8" x2="159.3" y2="94.5"/>
				<line class="st40" x1="159.5" y1="93.3" x2="158.5" y2="93.7"/>
				<line class="st40" x1="158" y1="92.6" x2="157.1" y2="93"/>
				<line class="st40" x1="157.1" y1="92.2" x2="156" y2="92.4"/>
				<line class="st40" x1="156.2" y1="92.5" x2="156.4" y2="93.3"/>
				<line class="st40" x1="157.3" y1="93.1" x2="157.7" y2="93.8"/>
			</g>
		</g>
		<g>
			
				<ellipse transform="matrix(0.2078 -0.9782 0.9782 0.2078 35.5814 223.6908)" class="st27" cx="155.9" cy="89.9" rx="1.3" ry="1.3"/>
			
				<ellipse transform="matrix(0.2078 -0.9782 0.9782 0.2078 32.5302 223.3169)" class="st26" cx="154.1" cy="91.6" rx="1.3" ry="1.3"/>
			
				<ellipse transform="matrix(0.2078 -0.9782 0.9782 0.2078 30.1425 222.9178)" class="st30" cx="152.7" cy="92.8" rx="1.3" ry="1.3"/>
			
				<ellipse transform="matrix(0.2078 -0.9782 0.9782 0.2078 31.8003 220.6555)" class="st28" cx="152.1" cy="90.7" rx="1.3" ry="1.3"/>
			
				<ellipse transform="matrix(0.2078 -0.9782 0.9782 0.2078 34.5689 221.5385)" class="st31" cx="154.1" cy="89.4" rx="1.3" ry="1.3"/>
			
				<ellipse transform="matrix(0.2078 -0.9782 0.9782 0.2078 33.4515 225.9199)" class="st28" cx="156.2" cy="92.3" rx="1.3" ry="1.3"/>
			
				<ellipse transform="matrix(0.2078 -0.9782 0.9782 0.2078 30.2338 224.9713)" class="st31" cx="154" cy="93.8" rx="1.3" ry="1.3"/>
		</g>
	</g>
	<g>
		<g>
			<g>
				<path class="st32" d="M91.1,75.5c0,0,1.2,1.4,0.5,3.4s-2.2,1.8-2.2,1.8s-1.3-1-0.7-2.7C89.3,76.3,91.1,75.5,91.1,75.5z"/>
				<path class="st33" d="M90.9,76.2c0,0-0.2,1.2-0.5,2.2s-1,2.3-1,2.3"/>
				<line class="st34" x1="90.7" y1="77.2" x2="91.3" y2="76.8"/>
				<line class="st34" x1="89.9" y1="77.3" x2="90.5" y2="78.2"/>
				<line class="st34" x1="89.6" y1="78.3" x2="90.1" y2="79.2"/>
				<line class="st34" x1="89.9" y1="79.7" x2="90.7" y2="79.5"/>
			</g>
			<g>
				<path class="st35" d="M81.6,78.8c0,0,1,1.9,4,2.8c3.1,0.9,3.9-0.2,3.9-0.2s-0.4-1.6-3-2.5C83.9,78.1,81.6,78.8,81.6,78.8z"/>
				<path class="st36" d="M82.7,79.2c0,0,1.6,0.7,3.1,1.2c1.5,0.5,3.7,1,3.7,1"/>
				<line class="st37" x1="84.1" y1="79.8" x2="83.2" y2="79.9"/>
				<line class="st37" x1="84" y1="79" x2="84.6" y2="80"/>
				<line class="st37" x1="86" y1="79.6" x2="86.7" y2="80.6"/>
				<line class="st37" x1="87.4" y1="80" x2="88.2" y2="81.1"/>
				<line class="st37" x1="88" y1="81" x2="87.1" y2="81.4"/>
				<line class="st37" x1="86.4" y1="80.6" x2="85.4" y2="80.7"/>
			</g>
			<g>
				<path class="st38" d="M86.6,75.7c0,0,1.8,0.3,2.8,2.5c1,2.2-0.1,3-0.1,3s-1.6,0.1-2.5-1.8S86.6,75.7,86.6,75.7z"/>
				<path class="st39" d="M87,76.5c0,0,0.7,1.1,1.3,2.2c0.5,1.1,1.1,2.7,1.1,2.7"/>
				<line class="st40" x1="87.6" y1="77.4" x2="87.6" y2="76.6"/>
				<line class="st40" x1="86.8" y1="77.5" x2="87.8" y2="77.8"/>
				<line class="st40" x1="87.5" y1="78.9" x2="88.5" y2="79.2"/>
				<line class="st40" x1="88" y1="79.9" x2="89" y2="80.3"/>
				<line class="st40" x1="88.9" y1="80.1" x2="89.2" y2="79.4"/>
				<line class="st40" x1="88.4" y1="79" x2="88.5" y2="78.2"/>
			</g>
		</g>
		<g>
			<ellipse transform="matrix(0.769 -0.6393 0.6393 0.769 -32.4664 74.9636)" class="st31" cx="87.5" cy="82.4" rx="1.3" ry="1.3"/>
			<ellipse transform="matrix(0.769 -0.6393 0.6393 0.769 -31.7487 76.4605)" class="st26" cx="89.9" cy="82.2" rx="1.3" ry="1.3"/>
			<ellipse transform="matrix(0.769 -0.6393 0.6393 0.769 -31.2356 77.6629)" class="st30" cx="91.8" cy="82" rx="1.3" ry="1.3"/>
			<ellipse transform="matrix(0.769 -0.6393 0.6393 0.769 -32.7471 77.567)" class="st28" cx="90.9" cy="84.1" rx="1.3" ry="1.3"/>
			<ellipse transform="matrix(0.769 -0.6393 0.6393 0.769 -33.151 76.0505)" class="st25" cx="88.6" cy="83.9" rx="1.3" ry="1.3"/>
			<ellipse transform="matrix(0.769 -0.6393 0.6393 0.769 -30.8326 75.284)" class="st28" cx="88.7" cy="80.3" rx="1.3" ry="1.3"/>
			<ellipse transform="matrix(0.769 -0.6393 0.6393 0.769 -30.3279 77.0239)" class="st31" cx="91.4" cy="80.5" rx="1.3" ry="1.3"/>
		</g>
	</g>
</g>
</svg>
