<?xml version="1.0" encoding="utf-8"?>
<!-- Generator: Adobe Illustrator 22.0.1, SVG Export Plug-In . SVG Version: 6.00 Build 0)  -->
<svg version="1.1" id="Layer_1" xmlns="http://www.w3.org/2000/svg" xmlns:xlink="http://www.w3.org/1999/xlink" x="0px" y="0px"
	 viewBox="0 0 75 75" style="enable-background:new 0 0 75 75;" xml:space="preserve">
<style type="text/css">
	.st0{stroke:#000000;stroke-width:0.4301;stroke-linecap:round;stroke-linejoin:round;stroke-miterlimit:10;}
	.st1{fill:none;stroke:#000000;stroke-width:2.0987;stroke-linecap:round;stroke-linejoin:round;stroke-miterlimit:10;}
	.st2{fill:#ED1C24;stroke:#000000;stroke-width:0.6708;stroke-linecap:round;stroke-linejoin:round;stroke-miterlimit:10;}
	.st3{stroke:#000000;stroke-width:0.8531;stroke-linecap:round;stroke-linejoin:round;stroke-miterlimit:10;}
	.st4{stroke:#000000;stroke-width:0.4301;stroke-miterlimit:10;}
	.st5{fill:#FFFFFF;stroke:#FFFFFF;stroke-width:0.3324;stroke-linecap:round;stroke-linejoin:round;stroke-miterlimit:10;}
	.st6{fill:#FFFFFF;stroke:#FFFFFF;stroke-width:0.3498;stroke-linecap:round;stroke-linejoin:round;stroke-miterlimit:10;}
	.st7{fill:#FFFFFF;}
	.st8{fill:#8DC63F;stroke:#000000;stroke-width:0.3577;stroke-miterlimit:10;}
	.st9{fill:#2B3990;stroke:#000000;stroke-width:0.3577;stroke-miterlimit:10;}
	.st10{fill:#009444;stroke:#000000;stroke-width:0.3577;stroke-miterlimit:10;}
	.st11{fill:#FFDE17;stroke:#000000;stroke-width:0.3577;stroke-miterlimit:10;}
	.st12{fill:#1B75BC;stroke:#000000;stroke-width:0.3577;stroke-miterlimit:10;}
	.st13{fill:#92278F;stroke:#000000;stroke-width:0.3577;stroke-miterlimit:10;}
	.st14{fill:#F15A29;stroke:#000000;stroke-width:0.3577;stroke-miterlimit:10;}
	.st15{fill:#7F3F98;stroke:#000000;stroke-width:0.3577;stroke-miterlimit:10;}
	.st16{fill:#FFFFFF;stroke:#000000;stroke-width:0.3577;stroke-miterlimit:10;}
	.st17{fill:#2B3990;stroke:#000000;stroke-width:0.4301;stroke-miterlimit:10;}
	.st18{fill:#39B54A;stroke:#5E7134;stroke-width:0.1878;stroke-linecap:round;stroke-linejoin:round;stroke-miterlimit:10;}
	.st19{fill:none;stroke:#5E7134;stroke-width:0.1878;stroke-linecap:round;stroke-linejoin:round;stroke-miterlimit:10;}
	.st20{fill:#95AB3B;stroke:#5E7134;stroke-width:0.1878;stroke-linecap:round;stroke-linejoin:round;stroke-miterlimit:10;}
	.st21{fill:#39B54A;stroke:#5E7134;stroke-width:0.1782;stroke-linecap:round;stroke-linejoin:round;stroke-miterlimit:10;}
	.st22{fill:none;stroke:#5E7134;stroke-width:0.1782;stroke-linecap:round;stroke-linejoin:round;stroke-miterlimit:10;}
	.st23{fill:#95AB3B;stroke:#5E7134;stroke-width:0.1782;stroke-linecap:round;stroke-linejoin:round;stroke-miterlimit:10;}
	.st24{fill:#8DC63F;stroke:#5E7134;stroke-width:0.1782;stroke-linecap:round;stroke-linejoin:round;stroke-miterlimit:10;}
	.st25{fill:#8C1417;stroke:#431813;stroke-width:0.2874;stroke-miterlimit:10;}
	.st26{fill:#EF4136;stroke:#BE1E2D;stroke-width:0.2874;stroke-miterlimit:10;}
	.st27{fill:#691D14;stroke:#431813;stroke-width:0.2874;stroke-miterlimit:10;}
	.st28{fill:#BB2026;stroke:#9F1D21;stroke-width:0.2874;stroke-miterlimit:10;}
	.st29{fill:#A71E22;stroke:#701D19;stroke-width:0.2874;stroke-miterlimit:10;}
	.st30{fill:#ED1C24;stroke:#691D14;stroke-width:0.2874;stroke-miterlimit:10;}
	.st31{fill:#E94924;stroke:#BE1E2D;stroke-width:0.2874;stroke-miterlimit:10;}
	.st32{fill:#39B54A;stroke:#5E7134;stroke-width:0.1549;stroke-linecap:round;stroke-linejoin:round;stroke-miterlimit:10;}
	.st33{fill:none;stroke:#5E7134;stroke-width:0.1549;stroke-linecap:round;stroke-linejoin:round;stroke-miterlimit:10;}
	.st34{fill:#95AB3B;stroke:#5E7134;stroke-width:0.1549;stroke-linecap:round;stroke-linejoin:round;stroke-miterlimit:10;}
	.st35{fill:#39B54A;stroke:#5E7134;stroke-width:0.1864;stroke-linecap:round;stroke-linejoin:round;stroke-miterlimit:10;}
	.st36{fill:none;stroke:#5E7134;stroke-width:0.1864;stroke-linecap:round;stroke-linejoin:round;stroke-miterlimit:10;}
	.st37{fill:#95AB3B;stroke:#5E7134;stroke-width:0.1864;stroke-linecap:round;stroke-linejoin:round;stroke-miterlimit:10;}
	.st38{fill:#8DC63F;stroke:#5E7134;stroke-width:0.161;stroke-linecap:round;stroke-linejoin:round;stroke-miterlimit:10;}
	.st39{fill:none;stroke:#5E7134;stroke-width:0.161;stroke-linecap:round;stroke-linejoin:round;stroke-miterlimit:10;}
	.st40{fill:#95AB3B;stroke:#5E7134;stroke-width:0.161;stroke-linecap:round;stroke-linejoin:round;stroke-miterlimit:10;}
	.st41{fill:#ED1C24;}
</style>
<g>
	<g>
		<path class="st41" d="M18.5,16.8c-0.2,0-0.3-0.1-0.4-0.2c-0.1-0.1-0.2-0.3-0.2-0.4L17.8,2.9c0-0.4,0.2-0.8,0.5-1.1
			c0.3-0.3,0.7-0.5,1.1-0.5L58.2,1c0.4,0,0.8,0.2,1.1,0.5c0.3,0.3,0.5,0.7,0.5,1.1l0.1,13.3c0,0.3-0.3,0.6-0.6,0.6L18.5,16.8
			C18.5,16.8,18.5,16.8,18.5,16.8z M58.2,2.2C58.2,2.2,58.2,2.2,58.2,2.2L19.4,2.5c-0.1,0-0.2,0-0.3,0.1c-0.1,0.1-0.1,0.2-0.1,0.3
			l0.1,12.7l39.6-0.2L58.6,2.6c0-0.1,0-0.2-0.1-0.3C58.4,2.3,58.3,2.2,58.2,2.2z"/>
	</g>
	<g>
		<path class="st41" d="M38.8,74c-8.7,0-16.8-3.4-23-9.5c-6.2-6.2-9.7-14.4-9.7-23.1v0c-0.1-10.1,4.3-19.6,12-26.2
			c0.2-0.2,0.4-0.2,0.7-0.1c0.2,0.1,0.3,0.2,0.3,0.4l40.2-0.2l2.3,0c0.1-0.1,0.2-0.1,0.3-0.2c0.2,0,0.4,0,0.5,0.1
			c0.6,0.5,1.3,1.1,1.8,1.7c6.5,6.4,10.1,15,10.2,24.1c0.1,8.7-3.3,17-9.5,23.2c-6.2,6.2-14.4,9.7-23.1,9.7L38.8,74z M18.3,16.7
			c-7,6.3-11,15.3-11,24.7v0c0.1,8.4,3.4,16.3,9.4,22.2c5.9,5.9,13.8,9.1,22.2,9.1l3.1,0c8.4-0.1,16.3-3.4,22.2-9.4
			c5.9-6,9.1-13.9,9.1-22.4c-0.1-8.8-3.5-17.1-9.8-23.2c-0.4-0.4-0.9-0.9-1.4-1.3c0,0,0,0-0.1,0l-2.7,0l-40.7,0.3
			C18.4,16.8,18.4,16.7,18.3,16.7z"/>
	</g>
	<g>
		<path class="st41" d="M68.9,34.7c-0.3,0-0.5-0.2-0.6-0.5c-1.5-5.6-4.5-10.7-8.7-14.9c-0.2-0.2-0.2-0.6,0-0.9s0.6-0.2,0.9,0
			c4.3,4.3,7.4,9.6,9,15.4c0.1,0.3-0.1,0.7-0.4,0.8C69,34.7,69,34.7,68.9,34.7z"/>
	</g>
	<g>
		<path class="st41" d="M59.2,16.5c-0.3,0-0.6-0.3-0.6-0.6L58.6,4.5c0-0.3,0.3-0.6,0.6-0.6l8.3-0.1c0,0,0,0,0,0
			c0.5,0,0.9,0.2,1.1,0.7c0.2,0.4,0.2,0.9,0,1.3l-6.1,10.4c-0.1,0.2-0.3,0.3-0.5,0.3L59.2,16.5z M59.8,5.1l0.1,10.2l1.8,0l5.9-10.1
			c0,0,0,0,0-0.1c0,0-0.1,0-0.1,0L59.8,5.1z"/>
	</g>
	<g>
		<path class="st41" d="M38.8,73.7c-17.9,0-32.6-14.5-32.7-32.5l0,0c0-1.4,0.1-2.9,0.3-4.5c0-0.2,0.1-0.4,0.3-0.5
			c0.2-0.1,0.4-0.1,0.6,0l0.3,0.1c5.5,2.6,11.8,2.6,17.4,0l3.8-1.8c7.9-3.7,17.2-3.5,24.9,0.5l2.5,1.3c4.7,2.4,10.2,2.6,15,0.4
			l2-0.9c0.2-0.1,0.4-0.1,0.5,0c0.2,0.1,0.3,0.3,0.3,0.5c0.2,1.5,0.3,3,0.3,4.4c0.1,8.7-3.3,17-9.4,23.2s-14.3,9.7-23,9.7l-2.9,0
			C38.9,73.7,38.9,73.7,38.8,73.7z M7.4,41.2c0.1,17.3,14.2,31.3,31.4,31.3c0.1,0,0.1,0,0.2,0l2.9,0c8.4-0.1,16.3-3.4,22.2-9.3
			c5.9-6,9.1-13.9,9.1-22.3c0-1.1-0.1-2.3-0.2-3.5l-1.2,0.6c-5.2,2.3-11.1,2.2-16.1-0.4l-2.5-1.3c-7.4-3.8-16.3-4-23.8-0.4l-3.8,1.8
			c-5.7,2.7-12.2,2.8-17.9,0.3C7.4,38.9,7.4,40.1,7.4,41.2l-0.6,0L7.4,41.2z"/>
	</g>
	<g>
		<path class="st41" d="M4.4,26.8c-1.1,0-2.2-0.5-3-1.4c-0.7-0.9-1.1-2-0.9-3.1C2.1,12.9,9.3,5.6,18.4,4.3c0.2,0,0.4,0,0.5,0.1
			c0.1,0.1,0.2,0.3,0.2,0.5l0,7.2c0,0.3-0.2,0.5-0.5,0.6c-5.4,1.2-9.5,5.8-10.2,11.6c-0.2,1.5-1.4,2.5-2.8,2.5L4.4,26.8
			C4.4,26.8,4.4,26.8,4.4,26.8z M4.4,26.2L4.4,26.2L4.4,26.2z M17.8,5.6c-8.2,1.5-14.6,8.2-16,16.9c-0.1,0.8,0.1,1.5,0.6,2.1
			c0.5,0.6,1.3,0.9,2,0.9l1.2,0c0.8,0,1.5-0.6,1.6-1.4c0.8-6.1,5-11,10.7-12.5L17.8,5.6z"/>
	</g>
</g>
</svg>
