<?xml version="1.0" encoding="utf-8"?>
<!-- Generator: Adobe Illustrator 22.0.1, SVG Export Plug-In . SVG Version: 6.00 Build 0)  -->
<svg version="1.1" id="Layer_1" xmlns="http://www.w3.org/2000/svg" xmlns:xlink="http://www.w3.org/1999/xlink" x="0px" y="0px"
	 viewBox="0 0 80 140" style="enable-background:new 0 0 80 140;" xml:space="preserve">
<style type="text/css">
	.st0{stroke:#000000;stroke-width:0.4301;stroke-linecap:round;stroke-linejoin:round;stroke-miterlimit:10;}
	.st1{fill:none;stroke:#000000;stroke-width:2.0987;stroke-linecap:round;stroke-linejoin:round;stroke-miterlimit:10;}
	.st2{fill:#ED1C24;stroke:#000000;stroke-width:0.6708;stroke-linecap:round;stroke-linejoin:round;stroke-miterlimit:10;}
	.st3{stroke:#000000;stroke-width:0.8531;stroke-linecap:round;stroke-linejoin:round;stroke-miterlimit:10;}
	.st4{stroke:#000000;stroke-width:0.4301;stroke-miterlimit:10;}
	.st5{fill:#FFFFFF;stroke:#FFFFFF;stroke-width:0.3324;stroke-linecap:round;stroke-linejoin:round;stroke-miterlimit:10;}
	.st6{fill:#FFFFFF;stroke:#FFFFFF;stroke-width:0.3498;stroke-linecap:round;stroke-linejoin:round;stroke-miterlimit:10;}
	.st7{fill:#FFFFFF;}
	.st8{fill:#8DC63F;stroke:#000000;stroke-width:0.3577;stroke-miterlimit:10;}
	.st9{fill:#2B3990;stroke:#000000;stroke-width:0.3577;stroke-miterlimit:10;}
	.st10{fill:#009444;stroke:#000000;stroke-width:0.3577;stroke-miterlimit:10;}
	.st11{fill:#FFDE17;stroke:#000000;stroke-width:0.3577;stroke-miterlimit:10;}
	.st12{fill:#1B75BC;stroke:#000000;stroke-width:0.3577;stroke-miterlimit:10;}
	.st13{fill:#92278F;stroke:#000000;stroke-width:0.3577;stroke-miterlimit:10;}
	.st14{fill:#F15A29;stroke:#000000;stroke-width:0.3577;stroke-miterlimit:10;}
	.st15{fill:#7F3F98;stroke:#000000;stroke-width:0.3577;stroke-miterlimit:10;}
	.st16{fill:#FFFFFF;stroke:#000000;stroke-width:0.3577;stroke-miterlimit:10;}
	.st17{fill:#2B3990;stroke:#000000;stroke-width:0.4301;stroke-miterlimit:10;}
	.st18{fill:#39B54A;stroke:#5E7134;stroke-width:0.1878;stroke-linecap:round;stroke-linejoin:round;stroke-miterlimit:10;}
	.st19{fill:none;stroke:#5E7134;stroke-width:0.1878;stroke-linecap:round;stroke-linejoin:round;stroke-miterlimit:10;}
	.st20{fill:#95AB3B;stroke:#5E7134;stroke-width:0.1878;stroke-linecap:round;stroke-linejoin:round;stroke-miterlimit:10;}
	.st21{fill:#39B54A;stroke:#5E7134;stroke-width:0.1782;stroke-linecap:round;stroke-linejoin:round;stroke-miterlimit:10;}
	.st22{fill:none;stroke:#5E7134;stroke-width:0.1782;stroke-linecap:round;stroke-linejoin:round;stroke-miterlimit:10;}
	.st23{fill:#95AB3B;stroke:#5E7134;stroke-width:0.1782;stroke-linecap:round;stroke-linejoin:round;stroke-miterlimit:10;}
	.st24{fill:#8DC63F;stroke:#5E7134;stroke-width:0.1782;stroke-linecap:round;stroke-linejoin:round;stroke-miterlimit:10;}
	.st25{fill:#8C1417;stroke:#431813;stroke-width:0.2874;stroke-miterlimit:10;}
	.st26{fill:#EF4136;stroke:#BE1E2D;stroke-width:0.2874;stroke-miterlimit:10;}
	.st27{fill:#691D14;stroke:#431813;stroke-width:0.2874;stroke-miterlimit:10;}
	.st28{fill:#BB2026;stroke:#9F1D21;stroke-width:0.2874;stroke-miterlimit:10;}
	.st29{fill:#A71E22;stroke:#701D19;stroke-width:0.2874;stroke-miterlimit:10;}
	.st30{fill:#ED1C24;stroke:#691D14;stroke-width:0.2874;stroke-miterlimit:10;}
	.st31{fill:#E94924;stroke:#BE1E2D;stroke-width:0.2874;stroke-miterlimit:10;}
	.st32{fill:#39B54A;stroke:#5E7134;stroke-width:0.1549;stroke-linecap:round;stroke-linejoin:round;stroke-miterlimit:10;}
	.st33{fill:none;stroke:#5E7134;stroke-width:0.1549;stroke-linecap:round;stroke-linejoin:round;stroke-miterlimit:10;}
	.st34{fill:#95AB3B;stroke:#5E7134;stroke-width:0.1549;stroke-linecap:round;stroke-linejoin:round;stroke-miterlimit:10;}
	.st35{fill:#39B54A;stroke:#5E7134;stroke-width:0.1864;stroke-linecap:round;stroke-linejoin:round;stroke-miterlimit:10;}
	.st36{fill:none;stroke:#5E7134;stroke-width:0.1864;stroke-linecap:round;stroke-linejoin:round;stroke-miterlimit:10;}
	.st37{fill:#95AB3B;stroke:#5E7134;stroke-width:0.1864;stroke-linecap:round;stroke-linejoin:round;stroke-miterlimit:10;}
	.st38{fill:#8DC63F;stroke:#5E7134;stroke-width:0.161;stroke-linecap:round;stroke-linejoin:round;stroke-miterlimit:10;}
	.st39{fill:none;stroke:#5E7134;stroke-width:0.161;stroke-linecap:round;stroke-linejoin:round;stroke-miterlimit:10;}
	.st40{fill:#95AB3B;stroke:#5E7134;stroke-width:0.161;stroke-linecap:round;stroke-linejoin:round;stroke-miterlimit:10;}
	.st41{fill:#ED1C24;}
</style>
<g>
	<g>
		<path class="st41" d="M64.3,139c-0.2,0-0.4-0.1-0.6-0.2c-35.4-27-42.4-77.7-15.4-113.2c0.3-0.4,0.9-0.5,1.4-0.2
			c0.4,0.3,0.5,0.9,0.2,1.4c-26.3,34.6-19.6,84.1,15,110.4c0.4,0.3,0.5,0.9,0.2,1.4C64.9,138.9,64.6,139,64.3,139z"/>
	</g>
	<g>
		<g>
			<path class="st41" d="M37.1,101.6c-0.3,0-0.5-0.1-0.7-0.3c-0.3-0.3-0.4-0.7-0.2-1l2.3-6.7C42,83.3,50.3,75.2,60.7,72l5.7-1.8
				c0.4-0.1,0.7,0,1,0.2c0.3,0.3,0.4,0.6,0.2,1l-1.8,5.7c-3.3,10.4-11.4,18.6-21.6,22.2l0,0l-6.7,2.3
				C37.3,101.6,37.2,101.6,37.1,101.6z M65.1,72.6l-3.9,1.2c-9.8,3.1-17.6,10.7-20.9,20.4l-1.7,4.8l4.8-1.7
				c9.7-3.3,17.3-11.1,20.4-20.9L65.1,72.6z M43.9,98.3L43.9,98.3L43.9,98.3z"/>
		</g>
		<g>
			<path class="st41" d="M43.1,95.3c-0.2,0-0.3-0.1-0.5-0.2c-0.3-0.3-0.3-0.7,0-0.9l16.9-16.9c0.3-0.3,0.7-0.3,0.9,0s0.3,0.7,0,0.9
				L43.6,95.1C43.4,95.3,43.3,95.3,43.1,95.3z"/>
		</g>
	</g>
	<g>
		<g>
			<path class="st41" d="M47,30c-0.1,0-0.1,0-0.2,0c-0.4-0.1-0.7-0.3-0.8-0.7l-1.4-4.5c-2.1-6.9-0.8-14.5,3.4-20.3l2.3-3.1
				C50.7,1.1,51,1,51.4,1c0.4,0.1,0.7,0.3,0.8,0.7l1.2,3.7c2.3,6.8,1.2,14.5-2.9,20.4l-2.7,3.8C47.7,29.8,47.4,30,47,30z M50.9,4.1
				l-1.2,1.6c-3.9,5.3-5.1,12.2-3.1,18.5l0.8,2.5l1.5-2.2l0,0c3.8-5.4,4.8-12.4,2.7-18.6L50.9,4.1z"/>
		</g>
		<g>
			<path class="st41" d="M48.7,19.3c0,0-0.1,0-0.1,0c-0.4-0.1-0.6-0.4-0.5-0.8L49.7,8c0.1-0.4,0.4-0.6,0.8-0.5
				C50.8,7.5,51,7.8,51,8.2l-1.7,10.6C49.3,19.1,49,19.3,48.7,19.3z"/>
		</g>
	</g>
	<g>
		<g>
			<path class="st41" d="M53.8,34.5c-1.1,0-2.3-0.1-3.4-0.2l-5.7-0.7c-0.4,0-0.7-0.3-0.8-0.7c-0.1-0.4,0-0.8,0.2-1l4.1-4.1
				c6.3-6.2,15.2-9.2,24-7.9l4.8,0.7c0.4,0.1,0.7,0.3,0.8,0.7c0.1,0.3,0,0.7-0.2,1l-3.3,3.5C68.9,31.4,61.5,34.5,53.8,34.5z
				 M46.9,31.9l3.7,0.5l0,0c8.2,1,16.4-1.9,22.1-7.9l2-2.1l-2.9-0.4c-8.1-1.2-16.5,1.5-22.3,7.3L46.9,31.9z"/>
		</g>
		<g>
			<path class="st41" d="M59.8,28.1c-0.3,0-0.5-0.2-0.6-0.4c-0.1-0.3,0.1-0.7,0.4-0.8l9.7-3.3c0.3-0.1,0.7,0.1,0.8,0.4
				c0.1,0.3-0.1,0.7-0.4,0.8L60,28.1C59.9,28.1,59.9,28.1,59.8,28.1z"/>
		</g>
	</g>
	<g>
		<g>
			<path class="st41" d="M32.8,76.8c-0.1,0-0.2,0-0.3,0L26.8,75C16.4,71.7,8.1,63.6,4.6,53.4l-2.3-6.7c-0.1-0.4,0-0.8,0.2-1
				c0.3-0.3,0.7-0.4,1-0.2l6.7,2.3c10.3,3.5,18.3,11.8,21.6,22.2l1.8,5.7c0.1,0.4,0,0.7-0.2,1C33.3,76.7,33,76.8,32.8,76.8z
				 M4.8,47.9l1.7,4.8C9.8,62.4,17.6,70,27.4,73.1l3.9,1.2L30,70.5c-3.1-9.8-10.7-17.6-20.4-20.9L4.8,47.9z"/>
		</g>
		<g>
			<path class="st41" d="M26.1,69.8c-0.2,0-0.3-0.1-0.5-0.2L8.7,52.8c-0.3-0.3-0.3-0.7,0-0.9s0.7-0.3,0.9,0l16.9,16.9
				c0.3,0.3,0.3,0.7,0,0.9C26.4,69.8,26.2,69.8,26.1,69.8z"/>
		</g>
	</g>
	<g>
		<path class="st41" d="M38.6,70.4c-3,0-5.5-2.4-5.5-5.4c0-1.1,0.3-2.2,1-3.1c1-1.5,2.7-2.4,4.5-2.4c3,0,5.4,2.4,5.4,5.4
			c0,0.6-0.1,1.3-0.3,1.9C42.9,69,40.8,70.4,38.6,70.4z M38.6,60.8c-1.4,0-2.6,0.7-3.4,1.8c-0.5,0.7-0.7,1.5-0.7,2.3
			c0,2.3,1.9,4.1,4.1,4.1c1.7,0,3.3-1.1,3.9-2.7c0.2-0.5,0.3-0.9,0.3-1.4C42.7,62.7,40.8,60.8,38.6,60.8z"/>
	</g>
	<g>
		<path class="st41" d="M43.1,67.3c-0.2,0-0.3-0.1-0.5-0.2c-0.2-0.2-0.2-0.5-0.2-0.7c0.2-0.5,0.3-0.9,0.3-1.4c0-2.3-1.9-4.1-4.1-4.1
			c-1.4,0-2.6,0.7-3.4,1.8c-0.1,0.2-0.4,0.3-0.7,0.3c-0.3,0-0.5-0.2-0.5-0.5c-0.2-0.6-0.2-1.2-0.2-1.8c0-3.9,3.2-7.1,7.1-7.1
			c3.9,0,7.1,3.2,7.1,7.1c0,2.9-1.8,5.6-4.6,6.6C43.2,67.3,43.1,67.3,43.1,67.3z M38.6,59.5c3,0,5.4,2.4,5.4,5.4c0,0.1,0,0.3,0,0.4
			c1.6-1,2.6-2.8,2.6-4.8c0-3.2-2.6-5.8-5.8-5.8c-3.2,0-5.7,2.6-5.7,5.8c0,0.1,0,0.1,0,0.2C36,60,37.3,59.5,38.6,59.5z"/>
	</g>
	<g>
		<path class="st41" d="M30,60.5c-2.8,0-5.1-2.3-5.1-5.1c0-2.8,2.3-5.1,5.1-5.1s5.1,2.3,5.1,5.1C35.1,58.2,32.8,60.5,30,60.5z
			 M30,51.7c-2.1,0-3.8,1.7-3.8,3.8s1.7,3.8,3.8,3.8c2.1,0,3.8-1.7,3.8-3.8S32.1,51.7,30,51.7z"/>
	</g>
	<g>
		<path class="st41" d="M28.3,86.9c-3,0-5.4-2.4-5.4-5.4c0-3,2.4-5.4,5.4-5.4s5.4,2.4,5.4,5.4C33.6,84.5,31.2,86.9,28.3,86.9z
			 M28.3,77.4c-2.2,0-4.1,1.8-4.1,4.1c0,2.2,1.8,4.1,4.1,4.1s4.1-1.8,4.1-4.1C32.3,79.3,30.5,77.4,28.3,77.4z"/>
	</g>
	<g>
		<path class="st41" d="M44.9,111.3c-3,0-5.4-2.4-5.4-5.4s2.4-5.4,5.4-5.4s5.4,2.4,5.4,5.4S47.9,111.3,44.9,111.3z M44.9,101.9
			c-2.2,0-4.1,1.8-4.1,4.1s1.8,4.1,4.1,4.1c2.2,0,4.1-1.8,4.1-4.1S47.1,101.9,44.9,101.9z"/>
	</g>
	<g>
		<path class="st41" d="M42.4,32.9c-2.2,0-4-1.8-4-4c0-2.2,1.8-4,4-4c2.2,0,4,1.8,4,4C46.4,31.1,44.6,32.9,42.4,32.9z M42.4,26.3
			c-1.5,0-2.7,1.2-2.7,2.7c0,1.5,1.2,2.7,2.7,2.7s2.7-1.2,2.7-2.7C45.1,27.5,43.9,26.3,42.4,26.3z"/>
	</g>
	<g>
		<path class="st41" d="M46.7,40.6c-2.2,0-4-1.8-4-4c0-2.2,1.8-4,4-4c2.2,0,4,1.8,4,4C50.7,38.9,48.9,40.6,46.7,40.6z M46.7,34
			c-1.5,0-2.7,1.2-2.7,2.7s1.2,2.7,2.7,2.7s2.7-1.2,2.7-2.7S48.1,34,46.7,34z"/>
	</g>
</g>
</svg>
